ISO-10303-21;
HEADER;
/* Generated by software containing ST-Developer
 * from STEP Tools, Inc. (www.steptools.com) 
 */

FILE_DESCRIPTION(
/* description */ (''),
/* implementation_level */ '2;1');

FILE_NAME(
/* name */ '608 bearing Wire Guide Assembly.step',
/* time_stamp */ '2026-08-01T11:43:04-07:00',
/* author */ (''),
/* organization */ (''),
/* preprocessor_version */ 'ST-DEVELOPER v20.1',
/* originating_system */ 'Autodesk Translation Framework v15.8.0.0',
/* authorisation */ '');

FILE_SCHEMA (('AUTOMOTIVE_DESIGN { 1 0 10303 214 3 1 1 }'));
ENDSEC;

DATA;
#10=MECHANICAL_DESIGN_GEOMETRIC_PRESENTATION_REPRESENTATION('',(#46,#47,
#48,#49,#50,#51,#52,#53,#54,#55,#56,#57,#58),#1448);
#11=ITEM_DEFINED_TRANSFORMATION($,$,#846,#927);
#12=ITEM_DEFINED_TRANSFORMATION($,$,#802,#928);
#13=ITEM_DEFINED_TRANSFORMATION($,$,#802,#929);
#14=ITEM_DEFINED_TRANSFORMATION($,$,#846,#930);
#15=ITEM_DEFINED_TRANSFORMATION($,$,#802,#931);
#16=ITEM_DEFINED_TRANSFORMATION($,$,#846,#932);
#17=(
REPRESENTATION_RELATIONSHIP($,$,#1467,#1465)
REPRESENTATION_RELATIONSHIP_WITH_TRANSFORMATION(#11)
SHAPE_REPRESENTATION_RELATIONSHIP()
);
#18=(
REPRESENTATION_RELATIONSHIP($,$,#1466,#1465)
REPRESENTATION_RELATIONSHIP_WITH_TRANSFORMATION(#12)
SHAPE_REPRESENTATION_RELATIONSHIP()
);
#19=(
REPRESENTATION_RELATIONSHIP($,$,#1466,#1465)
REPRESENTATION_RELATIONSHIP_WITH_TRANSFORMATION(#13)
SHAPE_REPRESENTATION_RELATIONSHIP()
);
#20=(
REPRESENTATION_RELATIONSHIP($,$,#1467,#1465)
REPRESENTATION_RELATIONSHIP_WITH_TRANSFORMATION(#14)
SHAPE_REPRESENTATION_RELATIONSHIP()
);
#21=(
REPRESENTATION_RELATIONSHIP($,$,#1466,#1465)
REPRESENTATION_RELATIONSHIP_WITH_TRANSFORMATION(#15)
SHAPE_REPRESENTATION_RELATIONSHIP()
);
#22=(
REPRESENTATION_RELATIONSHIP($,$,#1467,#1465)
REPRESENTATION_RELATIONSHIP_WITH_TRANSFORMATION(#16)
SHAPE_REPRESENTATION_RELATIONSHIP()
);
#23=CONTEXT_DEPENDENT_SHAPE_REPRESENTATION(#17,#1459);
#24=CONTEXT_DEPENDENT_SHAPE_REPRESENTATION(#18,#1460);
#25=CONTEXT_DEPENDENT_SHAPE_REPRESENTATION(#19,#1461);
#26=CONTEXT_DEPENDENT_SHAPE_REPRESENTATION(#20,#1462);
#27=CONTEXT_DEPENDENT_SHAPE_REPRESENTATION(#21,#1463);
#28=CONTEXT_DEPENDENT_SHAPE_REPRESENTATION(#22,#1464);
#29=NEXT_ASSEMBLY_USAGE_OCCURRENCE('5972K222_Steel Ball Bearing:1',
'5972K222_Steel Ball Bearing:1','5972K222_Steel Ball Bearing:1',#1469,#1471,
'5972K222_Steel Ball Bearing:1');
#30=NEXT_ASSEMBLY_USAGE_OCCURRENCE('608 bearing wire guide v3:1',
'608 bearing wire guide v3:1','608 bearing wire guide v3:1',#1469,#1470,
'608 bearing wire guide v3:1');
#31=NEXT_ASSEMBLY_USAGE_OCCURRENCE('608 bearing wire guide v3:2',
'608 bearing wire guide v3:2','608 bearing wire guide v3:2',#1469,#1470,
'608 bearing wire guide v3:2');
#32=NEXT_ASSEMBLY_USAGE_OCCURRENCE('5972K222_Steel Ball Bearing:2',
'5972K222_Steel Ball Bearing:2','5972K222_Steel Ball Bearing:2',#1469,#1471,
'5972K222_Steel Ball Bearing:2');
#33=NEXT_ASSEMBLY_USAGE_OCCURRENCE('608 bearing wire guide v3:3',
'608 bearing wire guide v3:3','608 bearing wire guide v3:3',#1469,#1470,
'608 bearing wire guide v3:3');
#34=NEXT_ASSEMBLY_USAGE_OCCURRENCE('5972K222_Steel Ball Bearing:3',
'5972K222_Steel Ball Bearing:3','5972K222_Steel Ball Bearing:3',#1469,#1471,
'5972K222_Steel Ball Bearing:3');
#35=SPHERICAL_SURFACE('',#847,2.61337962921956);
#36=SPHERICAL_SURFACE('',#849,2.61337962921956);
#37=SPHERICAL_SURFACE('',#851,2.61337962921956);
#38=SPHERICAL_SURFACE('',#853,2.61337962921956);
#39=SPHERICAL_SURFACE('',#855,2.61337962921956);
#40=SPHERICAL_SURFACE('',#857,2.61337962921956);
#41=SPHERICAL_SURFACE('',#859,2.61337962921956);
#42=SHAPE_REPRESENTATION_RELATIONSHIP('SRR','None',#1466,#44);
#43=SHAPE_REPRESENTATION_RELATIONSHIP('SRR','None',#1467,#45);
#44=ADVANCED_BREP_SHAPE_REPRESENTATION('',(#59,#60),#1446);
#45=ADVANCED_BREP_SHAPE_REPRESENTATION('',(#61,#62,#63,#64,#65,#66,#67,
#68,#69,#70,#71),#1447);
#46=STYLED_ITEM('',(#1485),#59);
#47=STYLED_ITEM('',(#1485),#60);
#48=STYLED_ITEM('',(#1484),#61);
#49=STYLED_ITEM('',(#1484),#62);
#50=STYLED_ITEM('',(#1484),#63);
#51=STYLED_ITEM('',(#1484),#64);
#52=STYLED_ITEM('',(#1484),#65);
#53=STYLED_ITEM('',(#1484),#66);
#54=STYLED_ITEM('',(#1484),#67);
#55=STYLED_ITEM('',(#1484),#68);
#56=STYLED_ITEM('',(#1484),#69);
#57=STYLED_ITEM('',(#1484),#70);
#58=STYLED_ITEM('',(#1484),#71);
#59=MANIFOLD_SOLID_BREP('Body1',#765);
#60=MANIFOLD_SOLID_BREP('Body2',#766);
#61=MANIFOLD_SOLID_BREP('Body1',#767);
#62=MANIFOLD_SOLID_BREP('Body2',#768);
#63=MANIFOLD_SOLID_BREP('Body3',#769);
#64=MANIFOLD_SOLID_BREP('Body4',#770);
#65=MANIFOLD_SOLID_BREP('Body5',#771);
#66=MANIFOLD_SOLID_BREP('Body6',#772);
#67=MANIFOLD_SOLID_BREP('Body7',#773);
#68=MANIFOLD_SOLID_BREP('Body8',#774);
#69=MANIFOLD_SOLID_BREP('Body9',#775);
#70=MANIFOLD_SOLID_BREP('Body10',#776);
#71=MANIFOLD_SOLID_BREP('Body11',#777);
#72=CONICAL_SURFACE('',#824,14.3,0.785398163397449);
#73=CONICAL_SURFACE('',#827,14.3,0.785398163397449);
#74=CONICAL_SURFACE('',#880,10.65,0.785398163397442);
#75=CONICAL_SURFACE('',#890,11.,0.785398163397447);
#76=CONICAL_SURFACE('',#902,4.,0.785398163397447);
#77=CONICAL_SURFACE('',#908,4.35,0.785398163397449);
#78=FACE_BOUND('',#224,.T.);
#79=FACE_BOUND('',#227,.T.);
#80=FACE_BOUND('',#234,.T.);
#81=FACE_BOUND('',#237,.T.);
#82=FACE_BOUND('',#241,.T.);
#83=FACE_BOUND('',#254,.T.);
#84=FACE_BOUND('',#256,.T.);
#85=FACE_BOUND('',#258,.T.);
#86=FACE_BOUND('',#266,.T.);
#87=FACE_BOUND('',#268,.T.);
#88=FACE_BOUND('',#276,.T.);
#89=FACE_BOUND('',#278,.T.);
#90=FACE_BOUND('',#284,.T.);
#91=FACE_BOUND('',#286,.T.);
#92=FACE_BOUND('',#288,.T.);
#93=PLANE('',#811);
#94=PLANE('',#816);
#95=PLANE('',#834);
#96=PLANE('',#839);
#97=PLANE('',#845);
#98=PLANE('',#873);
#99=PLANE('',#874);
#100=PLANE('',#875);
#101=PLANE('',#892);
#102=PLANE('',#893);
#103=PLANE('',#910);
#104=PLANE('',#911);
#105=PLANE('',#924);
#106=PLANE('',#925);
#107=PLANE('',#926);
#108=LINE('',#1233,#130);
#109=LINE('',#1260,#131);
#110=LINE('',#1263,#132);
#111=LINE('',#1279,#133);
#112=LINE('',#1285,#134);
#113=LINE('',#1289,#135);
#114=LINE('',#1325,#136);
#115=LINE('',#1336,#137);
#116=LINE('',#1341,#138);
#117=LINE('',#1352,#139);
#118=LINE('',#1356,#140);
#119=LINE('',#1362,#141);
#120=LINE('',#1370,#142);
#121=LINE('',#1374,#143);
#122=LINE('',#1387,#144);
#123=LINE('',#1390,#145);
#124=LINE('',#1397,#146);
#125=LINE('',#1402,#147);
#126=LINE('',#1406,#148);
#127=LINE('',#1414,#149);
#128=LINE('',#1420,#150);
#129=LINE('',#1426,#151);
#130=VECTOR('',#951,11.05);
#131=VECTOR('',#986,14.3);
#132=VECTOR('',#989,14.3);
#133=VECTOR('',#1012,6.00000008940697);
#134=VECTOR('',#1019,2.);
#135=VECTOR('',#1024,3.95);
#136=VECTOR('',#1063,9.10999999999999);
#137=VECTOR('',#1078,5.40000000000001);
#138=VECTOR('',#1083,9.59999999999999);
#139=VECTOR('',#1098,11.);
#140=VECTOR('',#1103,10.65);
#141=VECTOR('',#1110,9.6);
#142=VECTOR('',#1121,9.6);
#143=VECTOR('',#1126,11.);
#144=VECTOR('',#1145,5.4);
#145=VECTOR('',#1148,5.4);
#146=VECTOR('',#1155,4.);
#147=VECTOR('',#1162,4.);
#148=VECTOR('',#1167,4.35);
#149=VECTOR('',#1178,5.40000000000001);
#150=VECTOR('',#1185,9.59999999999999);
#151=VECTOR('',#1192,9.10999999999999);
#152=CYLINDRICAL_SURFACE('',#808,11.05);
#153=CYLINDRICAL_SURFACE('',#837,6.00000008940697);
#154=CYLINDRICAL_SURFACE('',#841,2.);
#155=CYLINDRICAL_SURFACE('',#843,3.95);
#156=CYLINDRICAL_SURFACE('',#861,9.10999999999999);
#157=CYLINDRICAL_SURFACE('',#868,5.40000000000001);
#158=CYLINDRICAL_SURFACE('',#870,9.59999999999999);
#159=CYLINDRICAL_SURFACE('',#876,11.);
#160=CYLINDRICAL_SURFACE('',#882,9.6);
#161=CYLINDRICAL_SURFACE('',#888,9.6);
#162=CYLINDRICAL_SURFACE('',#898,5.4);
#163=CYLINDRICAL_SURFACE('',#900,5.4);
#164=CYLINDRICAL_SURFACE('',#906,4.);
#165=CYLINDRICAL_SURFACE('',#912,5.40000000000001);
#166=CYLINDRICAL_SURFACE('',#915,9.59999999999999);
#167=CYLINDRICAL_SURFACE('',#918,9.10999999999999);
#168=FACE_OUTER_BOUND('',#221,.T.);
#169=FACE_OUTER_BOUND('',#222,.T.);
#170=FACE_OUTER_BOUND('',#223,.T.);
#171=FACE_OUTER_BOUND('',#225,.T.);
#172=FACE_OUTER_BOUND('',#226,.T.);
#173=FACE_OUTER_BOUND('',#228,.T.);
#174=FACE_OUTER_BOUND('',#229,.T.);
#175=FACE_OUTER_BOUND('',#230,.T.);
#176=FACE_OUTER_BOUND('',#231,.T.);
#177=FACE_OUTER_BOUND('',#232,.T.);
#178=FACE_OUTER_BOUND('',#233,.T.);
#179=FACE_OUTER_BOUND('',#235,.T.);
#180=FACE_OUTER_BOUND('',#236,.T.);
#181=FACE_OUTER_BOUND('',#238,.T.);
#182=FACE_OUTER_BOUND('',#239,.T.);
#183=FACE_OUTER_BOUND('',#240,.T.);
#184=FACE_OUTER_BOUND('',#242,.T.);
#185=FACE_OUTER_BOUND('',#243,.T.);
#186=FACE_OUTER_BOUND('',#244,.T.);
#187=FACE_OUTER_BOUND('',#245,.T.);
#188=FACE_OUTER_BOUND('',#246,.T.);
#189=FACE_OUTER_BOUND('',#247,.T.);
#190=FACE_OUTER_BOUND('',#248,.T.);
#191=FACE_OUTER_BOUND('',#249,.T.);
#192=FACE_OUTER_BOUND('',#250,.T.);
#193=FACE_OUTER_BOUND('',#251,.T.);
#194=FACE_OUTER_BOUND('',#252,.T.);
#195=FACE_OUTER_BOUND('',#253,.T.);
#196=FACE_OUTER_BOUND('',#255,.T.);
#197=FACE_OUTER_BOUND('',#257,.T.);
#198=FACE_OUTER_BOUND('',#259,.T.);
#199=FACE_OUTER_BOUND('',#260,.T.);
#200=FACE_OUTER_BOUND('',#261,.T.);
#201=FACE_OUTER_BOUND('',#262,.T.);
#202=FACE_OUTER_BOUND('',#263,.T.);
#203=FACE_OUTER_BOUND('',#264,.T.);
#204=FACE_OUTER_BOUND('',#265,.T.);
#205=FACE_OUTER_BOUND('',#267,.T.);
#206=FACE_OUTER_BOUND('',#269,.T.);
#207=FACE_OUTER_BOUND('',#270,.T.);
#208=FACE_OUTER_BOUND('',#271,.T.);
#209=FACE_OUTER_BOUND('',#272,.T.);
#210=FACE_OUTER_BOUND('',#273,.T.);
#211=FACE_OUTER_BOUND('',#274,.T.);
#212=FACE_OUTER_BOUND('',#275,.T.);
#213=FACE_OUTER_BOUND('',#277,.T.);
#214=FACE_OUTER_BOUND('',#279,.T.);
#215=FACE_OUTER_BOUND('',#280,.T.);
#216=FACE_OUTER_BOUND('',#281,.T.);
#217=FACE_OUTER_BOUND('',#282,.T.);
#218=FACE_OUTER_BOUND('',#283,.T.);
#219=FACE_OUTER_BOUND('',#285,.T.);
#220=FACE_OUTER_BOUND('',#287,.T.);
#221=EDGE_LOOP('',(#519,#520,#521,#522,#523));
#222=EDGE_LOOP('',(#524,#525,#526,#527,#528,#529));
#223=EDGE_LOOP('',(#530));
#224=EDGE_LOOP('',(#531));
#225=EDGE_LOOP('',(#532,#533,#534,#535,#536));
#226=EDGE_LOOP('',(#537));
#227=EDGE_LOOP('',(#538));
#228=EDGE_LOOP('',(#539,#540,#541,#542,#543,#544));
#229=EDGE_LOOP('',(#545,#546,#547,#548,#549,#550));
#230=EDGE_LOOP('',(#551,#552,#553,#554,#555,#556));
#231=EDGE_LOOP('',(#557,#558,#559,#560,#561));
#232=EDGE_LOOP('',(#562,#563,#564,#565,#566));
#233=EDGE_LOOP('',(#567));
#234=EDGE_LOOP('',(#568));
#235=EDGE_LOOP('',(#569,#570,#571,#572));
#236=EDGE_LOOP('',(#573));
#237=EDGE_LOOP('',(#574));
#238=EDGE_LOOP('',(#575,#576,#577,#578));
#239=EDGE_LOOP('',(#579,#580,#581,#582));
#240=EDGE_LOOP('',(#583));
#241=EDGE_LOOP('',(#584));
#242=EDGE_LOOP('',(#585,#586));
#243=EDGE_LOOP('',(#587,#588));
#244=EDGE_LOOP('',(#589,#590));
#245=EDGE_LOOP('',(#591,#592));
#246=EDGE_LOOP('',(#593,#594));
#247=EDGE_LOOP('',(#595,#596));
#248=EDGE_LOOP('',(#597,#598));
#249=EDGE_LOOP('',(#599,#600,#601,#602));
#250=EDGE_LOOP('',(#603,#604,#605,#606));
#251=EDGE_LOOP('',(#607,#608,#609,#610));
#252=EDGE_LOOP('',(#611,#612,#613,#614));
#253=EDGE_LOOP('',(#615));
#254=EDGE_LOOP('',(#616));
#255=EDGE_LOOP('',(#617));
#256=EDGE_LOOP('',(#618));
#257=EDGE_LOOP('',(#619));
#258=EDGE_LOOP('',(#620));
#259=EDGE_LOOP('',(#621,#622,#623,#624,#625));
#260=EDGE_LOOP('',(#626,#627,#628,#629));
#261=EDGE_LOOP('',(#630,#631,#632,#633));
#262=EDGE_LOOP('',(#634,#635,#636,#637));
#263=EDGE_LOOP('',(#638,#639,#640,#641));
#264=EDGE_LOOP('',(#642,#643,#644,#645,#646));
#265=EDGE_LOOP('',(#647));
#266=EDGE_LOOP('',(#648));
#267=EDGE_LOOP('',(#649));
#268=EDGE_LOOP('',(#650));
#269=EDGE_LOOP('',(#651,#652,#653,#654));
#270=EDGE_LOOP('',(#655,#656,#657,#658));
#271=EDGE_LOOP('',(#659,#660,#661,#662));
#272=EDGE_LOOP('',(#663,#664,#665,#666,#667));
#273=EDGE_LOOP('',(#668,#669,#670,#671,#672));
#274=EDGE_LOOP('',(#673,#674,#675,#676));
#275=EDGE_LOOP('',(#677));
#276=EDGE_LOOP('',(#678));
#277=EDGE_LOOP('',(#679));
#278=EDGE_LOOP('',(#680));
#279=EDGE_LOOP('',(#681,#682,#683,#684));
#280=EDGE_LOOP('',(#685,#686,#687,#688));
#281=EDGE_LOOP('',(#689,#690,#691,#692));
#282=EDGE_LOOP('',(#693,#694,#695,#696));
#283=EDGE_LOOP('',(#697));
#284=EDGE_LOOP('',(#698));
#285=EDGE_LOOP('',(#699));
#286=EDGE_LOOP('',(#700));
#287=EDGE_LOOP('',(#701));
#288=EDGE_LOOP('',(#702));
#289=CIRCLE('',#804,11.05);
#290=CIRCLE('',#805,0.5);
#291=CIRCLE('',#806,11.55);
#292=CIRCLE('',#807,11.05);
#293=CIRCLE('',#809,11.05);
#294=CIRCLE('',#810,11.05);
#295=CIRCLE('',#812,14.8428932188135);
#296=CIRCLE('',#814,11.55);
#297=CIRCLE('',#815,0.5);
#298=CIRCLE('',#817,14.8428932188135);
#299=CIRCLE('',#819,12.9035533905933);
#300=CIRCLE('',#820,0.5);
#301=CIRCLE('',#821,12.9035533905933);
#302=CIRCLE('',#822,12.9035533905933);
#303=CIRCLE('',#823,12.9035533905933);
#304=CIRCLE('',#825,15.1964466094067);
#305=CIRCLE('',#826,15.1964466094067);
#306=CIRCLE('',#828,15.1964466094067);
#307=CIRCLE('',#829,15.1964466094067);
#308=CIRCLE('',#831,0.5);
#309=CIRCLE('',#833,0.5);
#310=CIRCLE('',#835,6.00000008940697);
#311=CIRCLE('',#836,3.95);
#312=CIRCLE('',#838,6.00000008940697);
#313=CIRCLE('',#840,2.);
#314=CIRCLE('',#842,2.);
#315=CIRCLE('',#844,3.95);
#316=CIRCLE('',#848,2.61337962921956);
#317=CIRCLE('',#850,2.61337962921956);
#318=CIRCLE('',#852,2.61337962921956);
#319=CIRCLE('',#854,2.61337962921956);
#320=CIRCLE('',#856,2.61337962921956);
#321=CIRCLE('',#858,2.61337962921956);
#322=CIRCLE('',#860,2.61337962921956);
#323=CIRCLE('',#862,9.10999999999999);
#324=CIRCLE('',#863,9.10999999999999);
#325=CIRCLE('',#865,5.40000000000001);
#326=CIRCLE('',#866,1.46609131336349);
#327=CIRCLE('',#867,6.80000000000001);
#328=CIRCLE('',#869,5.40000000000001);
#329=CIRCLE('',#871,9.59999999999999);
#330=CIRCLE('',#872,9.59999999999999);
#331=CIRCLE('',#877,11.);
#332=CIRCLE('',#878,11.);
#333=CIRCLE('',#879,11.);
#334=CIRCLE('',#881,10.65);
#335=CIRCLE('',#883,9.59999999999999);
#336=CIRCLE('',#884,9.6);
#337=CIRCLE('',#886,2.61337962921956);
#338=CIRCLE('',#887,9.6);
#339=CIRCLE('',#889,9.59999999999999);
#340=CIRCLE('',#891,10.65);
#341=CIRCLE('',#895,5.4);
#342=CIRCLE('',#896,2.61337962921956);
#343=CIRCLE('',#897,5.4);
#344=CIRCLE('',#899,5.40000000000001);
#345=CIRCLE('',#901,5.40000000000001);
#346=CIRCLE('',#903,4.);
#347=CIRCLE('',#904,4.35);
#348=CIRCLE('',#905,4.);
#349=CIRCLE('',#907,4.);
#350=CIRCLE('',#909,4.35);
#351=CIRCLE('',#913,5.40000000000001);
#352=CIRCLE('',#914,5.40000000000001);
#353=CIRCLE('',#916,9.59999999999999);
#354=CIRCLE('',#917,9.59999999999999);
#355=CIRCLE('',#919,9.10999999999999);
#356=CIRCLE('',#920,9.10999999999999);
#357=CIRCLE('',#922,6.80000000000001);
#358=CIRCLE('',#923,1.46609131336349);
#359=VERTEX_POINT('',#1222);
#360=VERTEX_POINT('',#1223);
#361=VERTEX_POINT('',#1225);
#362=VERTEX_POINT('',#1230);
#363=VERTEX_POINT('',#1231);
#364=VERTEX_POINT('',#1236);
#365=VERTEX_POINT('',#1239);
#366=VERTEX_POINT('',#1243);
#367=VERTEX_POINT('',#1246);
#368=VERTEX_POINT('',#1247);
#369=VERTEX_POINT('',#1249);
#370=VERTEX_POINT('',#1251);
#371=VERTEX_POINT('',#1256);
#372=VERTEX_POINT('',#1257);
#373=VERTEX_POINT('',#1262);
#374=VERTEX_POINT('',#1264);
#375=VERTEX_POINT('',#1272);
#376=VERTEX_POINT('',#1274);
#377=VERTEX_POINT('',#1277);
#378=VERTEX_POINT('',#1281);
#379=VERTEX_POINT('',#1284);
#380=VERTEX_POINT('',#1288);
#381=VERTEX_POINT('',#1294);
#382=VERTEX_POINT('',#1295);
#383=VERTEX_POINT('',#1298);
#384=VERTEX_POINT('',#1299);
#385=VERTEX_POINT('',#1302);
#386=VERTEX_POINT('',#1303);
#387=VERTEX_POINT('',#1306);
#388=VERTEX_POINT('',#1307);
#389=VERTEX_POINT('',#1310);
#390=VERTEX_POINT('',#1311);
#391=VERTEX_POINT('',#1314);
#392=VERTEX_POINT('',#1315);
#393=VERTEX_POINT('',#1318);
#394=VERTEX_POINT('',#1319);
#395=VERTEX_POINT('',#1322);
#396=VERTEX_POINT('',#1324);
#397=VERTEX_POINT('',#1328);
#398=VERTEX_POINT('',#1330);
#399=VERTEX_POINT('',#1334);
#400=VERTEX_POINT('',#1338);
#401=VERTEX_POINT('',#1340);
#402=VERTEX_POINT('',#1347);
#403=VERTEX_POINT('',#1348);
#404=VERTEX_POINT('',#1351);
#405=VERTEX_POINT('',#1355);
#406=VERTEX_POINT('',#1359);
#407=VERTEX_POINT('',#1361);
#408=VERTEX_POINT('',#1365);
#409=VERTEX_POINT('',#1369);
#410=VERTEX_POINT('',#1373);
#411=VERTEX_POINT('',#1379);
#412=VERTEX_POINT('',#1381);
#413=VERTEX_POINT('',#1385);
#414=VERTEX_POINT('',#1389);
#415=VERTEX_POINT('',#1393);
#416=VERTEX_POINT('',#1394);
#417=VERTEX_POINT('',#1396);
#418=VERTEX_POINT('',#1401);
#419=VERTEX_POINT('',#1405);
#420=VERTEX_POINT('',#1411);
#421=VERTEX_POINT('',#1413);
#422=VERTEX_POINT('',#1417);
#423=VERTEX_POINT('',#1419);
#424=VERTEX_POINT('',#1423);
#425=VERTEX_POINT('',#1425);
#426=VERTEX_POINT('',#1429);
#427=EDGE_CURVE('',#359,#360,#289,.T.);
#428=EDGE_CURVE('',#360,#361,#290,.T.);
#429=EDGE_CURVE('',#361,#361,#291,.T.);
#430=EDGE_CURVE('',#360,#359,#292,.T.);
#431=EDGE_CURVE('',#362,#363,#293,.T.);
#432=EDGE_CURVE('',#362,#359,#108,.T.);
#433=EDGE_CURVE('',#363,#362,#294,.T.);
#434=EDGE_CURVE('',#364,#364,#295,.T.);
#435=EDGE_CURVE('',#365,#365,#296,.T.);
#436=EDGE_CURVE('',#365,#363,#297,.T.);
#437=EDGE_CURVE('',#366,#366,#298,.T.);
#438=EDGE_CURVE('',#367,#368,#299,.T.);
#439=EDGE_CURVE('',#368,#369,#300,.T.);
#440=EDGE_CURVE('',#369,#370,#301,.T.);
#441=EDGE_CURVE('',#370,#369,#302,.T.);
#442=EDGE_CURVE('',#368,#367,#303,.T.);
#443=EDGE_CURVE('',#371,#372,#304,.T.);
#444=EDGE_CURVE('',#372,#371,#305,.T.);
#445=EDGE_CURVE('',#372,#367,#109,.T.);
#446=EDGE_CURVE('',#370,#373,#110,.T.);
#447=EDGE_CURVE('',#374,#373,#306,.T.);
#448=EDGE_CURVE('',#373,#374,#307,.T.);
#449=EDGE_CURVE('',#366,#371,#308,.T.);
#450=EDGE_CURVE('',#374,#364,#309,.T.);
#451=EDGE_CURVE('',#375,#375,#310,.T.);
#452=EDGE_CURVE('',#376,#376,#311,.T.);
#453=EDGE_CURVE('',#377,#377,#312,.T.);
#454=EDGE_CURVE('',#377,#375,#111,.T.);
#455=EDGE_CURVE('',#378,#378,#313,.T.);
#456=EDGE_CURVE('',#378,#379,#112,.T.);
#457=EDGE_CURVE('',#379,#379,#314,.T.);
#458=EDGE_CURVE('',#376,#380,#113,.T.);
#459=EDGE_CURVE('',#380,#380,#315,.T.);
#460=EDGE_CURVE('',#381,#382,#316,.T.);
#461=EDGE_CURVE('',#383,#384,#317,.T.);
#462=EDGE_CURVE('',#385,#386,#318,.T.);
#463=EDGE_CURVE('',#387,#388,#319,.T.);
#464=EDGE_CURVE('',#389,#390,#320,.T.);
#465=EDGE_CURVE('',#391,#392,#321,.T.);
#466=EDGE_CURVE('',#393,#394,#322,.T.);
#467=EDGE_CURVE('',#395,#395,#323,.T.);
#468=EDGE_CURVE('',#395,#396,#114,.T.);
#469=EDGE_CURVE('',#396,#396,#324,.T.);
#470=EDGE_CURVE('',#397,#397,#325,.T.);
#471=EDGE_CURVE('',#397,#398,#326,.T.);
#472=EDGE_CURVE('',#398,#398,#327,.T.);
#473=EDGE_CURVE('',#399,#399,#328,.T.);
#474=EDGE_CURVE('',#399,#397,#115,.T.);
#475=EDGE_CURVE('',#400,#400,#329,.T.);
#476=EDGE_CURVE('',#400,#401,#116,.T.);
#477=EDGE_CURVE('',#401,#401,#330,.T.);
#478=EDGE_CURVE('',#402,#403,#331,.T.);
#479=EDGE_CURVE('',#403,#402,#332,.T.);
#480=EDGE_CURVE('',#403,#404,#117,.T.);
#481=EDGE_CURVE('',#404,#404,#333,.T.);
#482=EDGE_CURVE('',#404,#405,#118,.T.);
#483=EDGE_CURVE('',#405,#405,#334,.T.);
#484=EDGE_CURVE('',#406,#406,#335,.T.);
#485=EDGE_CURVE('',#406,#407,#119,.T.);
#486=EDGE_CURVE('',#407,#407,#336,.T.);
#487=EDGE_CURVE('',#407,#408,#337,.T.);
#488=EDGE_CURVE('',#408,#408,#338,.T.);
#489=EDGE_CURVE('',#408,#409,#120,.T.);
#490=EDGE_CURVE('',#409,#409,#339,.T.);
#491=EDGE_CURVE('',#402,#410,#121,.T.);
#492=EDGE_CURVE('',#410,#410,#340,.T.);
#493=EDGE_CURVE('',#411,#411,#341,.T.);
#494=EDGE_CURVE('',#411,#412,#342,.T.);
#495=EDGE_CURVE('',#412,#412,#343,.T.);
#496=EDGE_CURVE('',#413,#413,#344,.T.);
#497=EDGE_CURVE('',#413,#411,#122,.T.);
#498=EDGE_CURVE('',#412,#414,#123,.T.);
#499=EDGE_CURVE('',#414,#414,#345,.T.);
#500=EDGE_CURVE('',#415,#416,#346,.T.);
#501=EDGE_CURVE('',#416,#417,#124,.T.);
#502=EDGE_CURVE('',#417,#417,#347,.T.);
#503=EDGE_CURVE('',#416,#415,#348,.T.);
#504=EDGE_CURVE('',#415,#418,#125,.T.);
#505=EDGE_CURVE('',#418,#418,#349,.T.);
#506=EDGE_CURVE('',#418,#419,#126,.T.);
#507=EDGE_CURVE('',#419,#419,#350,.T.);
#508=EDGE_CURVE('',#420,#420,#351,.T.);
#509=EDGE_CURVE('',#420,#421,#127,.T.);
#510=EDGE_CURVE('',#421,#421,#352,.T.);
#511=EDGE_CURVE('',#422,#422,#353,.T.);
#512=EDGE_CURVE('',#422,#423,#128,.T.);
#513=EDGE_CURVE('',#423,#423,#354,.T.);
#514=EDGE_CURVE('',#424,#424,#355,.T.);
#515=EDGE_CURVE('',#424,#425,#129,.T.);
#516=EDGE_CURVE('',#425,#425,#356,.T.);
#517=EDGE_CURVE('',#426,#426,#357,.T.);
#518=EDGE_CURVE('',#426,#420,#358,.T.);
#519=ORIENTED_EDGE('',*,*,#427,.T.);
#520=ORIENTED_EDGE('',*,*,#428,.T.);
#521=ORIENTED_EDGE('',*,*,#429,.T.);
#522=ORIENTED_EDGE('',*,*,#428,.F.);
#523=ORIENTED_EDGE('',*,*,#430,.T.);
#524=ORIENTED_EDGE('',*,*,#431,.F.);
#525=ORIENTED_EDGE('',*,*,#432,.T.);
#526=ORIENTED_EDGE('',*,*,#430,.F.);
#527=ORIENTED_EDGE('',*,*,#427,.F.);
#528=ORIENTED_EDGE('',*,*,#432,.F.);
#529=ORIENTED_EDGE('',*,*,#433,.F.);
#530=ORIENTED_EDGE('',*,*,#434,.F.);
#531=ORIENTED_EDGE('',*,*,#429,.F.);
#532=ORIENTED_EDGE('',*,*,#435,.T.);
#533=ORIENTED_EDGE('',*,*,#436,.T.);
#534=ORIENTED_EDGE('',*,*,#433,.T.);
#535=ORIENTED_EDGE('',*,*,#431,.T.);
#536=ORIENTED_EDGE('',*,*,#436,.F.);
#537=ORIENTED_EDGE('',*,*,#437,.F.);
#538=ORIENTED_EDGE('',*,*,#435,.F.);
#539=ORIENTED_EDGE('',*,*,#438,.T.);
#540=ORIENTED_EDGE('',*,*,#439,.T.);
#541=ORIENTED_EDGE('',*,*,#440,.T.);
#542=ORIENTED_EDGE('',*,*,#441,.T.);
#543=ORIENTED_EDGE('',*,*,#439,.F.);
#544=ORIENTED_EDGE('',*,*,#442,.T.);
#545=ORIENTED_EDGE('',*,*,#443,.F.);
#546=ORIENTED_EDGE('',*,*,#444,.F.);
#547=ORIENTED_EDGE('',*,*,#445,.T.);
#548=ORIENTED_EDGE('',*,*,#442,.F.);
#549=ORIENTED_EDGE('',*,*,#438,.F.);
#550=ORIENTED_EDGE('',*,*,#445,.F.);
#551=ORIENTED_EDGE('',*,*,#440,.F.);
#552=ORIENTED_EDGE('',*,*,#441,.F.);
#553=ORIENTED_EDGE('',*,*,#446,.T.);
#554=ORIENTED_EDGE('',*,*,#447,.F.);
#555=ORIENTED_EDGE('',*,*,#448,.F.);
#556=ORIENTED_EDGE('',*,*,#446,.F.);
#557=ORIENTED_EDGE('',*,*,#437,.T.);
#558=ORIENTED_EDGE('',*,*,#449,.T.);
#559=ORIENTED_EDGE('',*,*,#443,.T.);
#560=ORIENTED_EDGE('',*,*,#444,.T.);
#561=ORIENTED_EDGE('',*,*,#449,.F.);
#562=ORIENTED_EDGE('',*,*,#447,.T.);
#563=ORIENTED_EDGE('',*,*,#448,.T.);
#564=ORIENTED_EDGE('',*,*,#450,.T.);
#565=ORIENTED_EDGE('',*,*,#434,.T.);
#566=ORIENTED_EDGE('',*,*,#450,.F.);
#567=ORIENTED_EDGE('',*,*,#451,.F.);
#568=ORIENTED_EDGE('',*,*,#452,.T.);
#569=ORIENTED_EDGE('',*,*,#453,.F.);
#570=ORIENTED_EDGE('',*,*,#454,.T.);
#571=ORIENTED_EDGE('',*,*,#451,.T.);
#572=ORIENTED_EDGE('',*,*,#454,.F.);
#573=ORIENTED_EDGE('',*,*,#453,.T.);
#574=ORIENTED_EDGE('',*,*,#455,.T.);
#575=ORIENTED_EDGE('',*,*,#455,.F.);
#576=ORIENTED_EDGE('',*,*,#456,.T.);
#577=ORIENTED_EDGE('',*,*,#457,.T.);
#578=ORIENTED_EDGE('',*,*,#456,.F.);
#579=ORIENTED_EDGE('',*,*,#452,.F.);
#580=ORIENTED_EDGE('',*,*,#458,.T.);
#581=ORIENTED_EDGE('',*,*,#459,.T.);
#582=ORIENTED_EDGE('',*,*,#458,.F.);
#583=ORIENTED_EDGE('',*,*,#459,.F.);
#584=ORIENTED_EDGE('',*,*,#457,.F.);
#585=ORIENTED_EDGE('',*,*,#460,.T.);
#586=ORIENTED_EDGE('',*,*,#460,.F.);
#587=ORIENTED_EDGE('',*,*,#461,.T.);
#588=ORIENTED_EDGE('',*,*,#461,.F.);
#589=ORIENTED_EDGE('',*,*,#462,.T.);
#590=ORIENTED_EDGE('',*,*,#462,.F.);
#591=ORIENTED_EDGE('',*,*,#463,.T.);
#592=ORIENTED_EDGE('',*,*,#463,.F.);
#593=ORIENTED_EDGE('',*,*,#464,.T.);
#594=ORIENTED_EDGE('',*,*,#464,.F.);
#595=ORIENTED_EDGE('',*,*,#465,.T.);
#596=ORIENTED_EDGE('',*,*,#465,.F.);
#597=ORIENTED_EDGE('',*,*,#466,.T.);
#598=ORIENTED_EDGE('',*,*,#466,.F.);
#599=ORIENTED_EDGE('',*,*,#467,.F.);
#600=ORIENTED_EDGE('',*,*,#468,.T.);
#601=ORIENTED_EDGE('',*,*,#469,.T.);
#602=ORIENTED_EDGE('',*,*,#468,.F.);
#603=ORIENTED_EDGE('',*,*,#470,.F.);
#604=ORIENTED_EDGE('',*,*,#471,.T.);
#605=ORIENTED_EDGE('',*,*,#472,.T.);
#606=ORIENTED_EDGE('',*,*,#471,.F.);
#607=ORIENTED_EDGE('',*,*,#473,.F.);
#608=ORIENTED_EDGE('',*,*,#474,.T.);
#609=ORIENTED_EDGE('',*,*,#470,.T.);
#610=ORIENTED_EDGE('',*,*,#474,.F.);
#611=ORIENTED_EDGE('',*,*,#475,.F.);
#612=ORIENTED_EDGE('',*,*,#476,.T.);
#613=ORIENTED_EDGE('',*,*,#477,.T.);
#614=ORIENTED_EDGE('',*,*,#476,.F.);
#615=ORIENTED_EDGE('',*,*,#475,.T.);
#616=ORIENTED_EDGE('',*,*,#469,.F.);
#617=ORIENTED_EDGE('',*,*,#477,.F.);
#618=ORIENTED_EDGE('',*,*,#473,.T.);
#619=ORIENTED_EDGE('',*,*,#467,.T.);
#620=ORIENTED_EDGE('',*,*,#472,.F.);
#621=ORIENTED_EDGE('',*,*,#478,.F.);
#622=ORIENTED_EDGE('',*,*,#479,.F.);
#623=ORIENTED_EDGE('',*,*,#480,.T.);
#624=ORIENTED_EDGE('',*,*,#481,.T.);
#625=ORIENTED_EDGE('',*,*,#480,.F.);
#626=ORIENTED_EDGE('',*,*,#481,.F.);
#627=ORIENTED_EDGE('',*,*,#482,.T.);
#628=ORIENTED_EDGE('',*,*,#483,.T.);
#629=ORIENTED_EDGE('',*,*,#482,.F.);
#630=ORIENTED_EDGE('',*,*,#484,.F.);
#631=ORIENTED_EDGE('',*,*,#485,.T.);
#632=ORIENTED_EDGE('',*,*,#486,.T.);
#633=ORIENTED_EDGE('',*,*,#485,.F.);
#634=ORIENTED_EDGE('',*,*,#486,.F.);
#635=ORIENTED_EDGE('',*,*,#487,.T.);
#636=ORIENTED_EDGE('',*,*,#488,.T.);
#637=ORIENTED_EDGE('',*,*,#487,.F.);
#638=ORIENTED_EDGE('',*,*,#488,.F.);
#639=ORIENTED_EDGE('',*,*,#489,.T.);
#640=ORIENTED_EDGE('',*,*,#490,.T.);
#641=ORIENTED_EDGE('',*,*,#489,.F.);
#642=ORIENTED_EDGE('',*,*,#478,.T.);
#643=ORIENTED_EDGE('',*,*,#479,.T.);
#644=ORIENTED_EDGE('',*,*,#491,.T.);
#645=ORIENTED_EDGE('',*,*,#492,.F.);
#646=ORIENTED_EDGE('',*,*,#491,.F.);
#647=ORIENTED_EDGE('',*,*,#492,.T.);
#648=ORIENTED_EDGE('',*,*,#490,.F.);
#649=ORIENTED_EDGE('',*,*,#483,.F.);
#650=ORIENTED_EDGE('',*,*,#484,.T.);
#651=ORIENTED_EDGE('',*,*,#493,.F.);
#652=ORIENTED_EDGE('',*,*,#494,.T.);
#653=ORIENTED_EDGE('',*,*,#495,.T.);
#654=ORIENTED_EDGE('',*,*,#494,.F.);
#655=ORIENTED_EDGE('',*,*,#496,.F.);
#656=ORIENTED_EDGE('',*,*,#497,.T.);
#657=ORIENTED_EDGE('',*,*,#493,.T.);
#658=ORIENTED_EDGE('',*,*,#497,.F.);
#659=ORIENTED_EDGE('',*,*,#495,.F.);
#660=ORIENTED_EDGE('',*,*,#498,.T.);
#661=ORIENTED_EDGE('',*,*,#499,.T.);
#662=ORIENTED_EDGE('',*,*,#498,.F.);
#663=ORIENTED_EDGE('',*,*,#500,.T.);
#664=ORIENTED_EDGE('',*,*,#501,.T.);
#665=ORIENTED_EDGE('',*,*,#502,.F.);
#666=ORIENTED_EDGE('',*,*,#501,.F.);
#667=ORIENTED_EDGE('',*,*,#503,.T.);
#668=ORIENTED_EDGE('',*,*,#500,.F.);
#669=ORIENTED_EDGE('',*,*,#504,.T.);
#670=ORIENTED_EDGE('',*,*,#505,.T.);
#671=ORIENTED_EDGE('',*,*,#504,.F.);
#672=ORIENTED_EDGE('',*,*,#503,.F.);
#673=ORIENTED_EDGE('',*,*,#505,.F.);
#674=ORIENTED_EDGE('',*,*,#506,.T.);
#675=ORIENTED_EDGE('',*,*,#507,.T.);
#676=ORIENTED_EDGE('',*,*,#506,.F.);
#677=ORIENTED_EDGE('',*,*,#499,.F.);
#678=ORIENTED_EDGE('',*,*,#502,.T.);
#679=ORIENTED_EDGE('',*,*,#496,.T.);
#680=ORIENTED_EDGE('',*,*,#507,.F.);
#681=ORIENTED_EDGE('',*,*,#508,.F.);
#682=ORIENTED_EDGE('',*,*,#509,.T.);
#683=ORIENTED_EDGE('',*,*,#510,.T.);
#684=ORIENTED_EDGE('',*,*,#509,.F.);
#685=ORIENTED_EDGE('',*,*,#511,.F.);
#686=ORIENTED_EDGE('',*,*,#512,.T.);
#687=ORIENTED_EDGE('',*,*,#513,.T.);
#688=ORIENTED_EDGE('',*,*,#512,.F.);
#689=ORIENTED_EDGE('',*,*,#514,.F.);
#690=ORIENTED_EDGE('',*,*,#515,.T.);
#691=ORIENTED_EDGE('',*,*,#516,.T.);
#692=ORIENTED_EDGE('',*,*,#515,.F.);
#693=ORIENTED_EDGE('',*,*,#517,.F.);
#694=ORIENTED_EDGE('',*,*,#518,.T.);
#695=ORIENTED_EDGE('',*,*,#508,.T.);
#696=ORIENTED_EDGE('',*,*,#518,.F.);
#697=ORIENTED_EDGE('',*,*,#516,.F.);
#698=ORIENTED_EDGE('',*,*,#517,.T.);
#699=ORIENTED_EDGE('',*,*,#513,.F.);
#700=ORIENTED_EDGE('',*,*,#514,.T.);
#701=ORIENTED_EDGE('',*,*,#511,.T.);
#702=ORIENTED_EDGE('',*,*,#510,.F.);
#703=TOROIDAL_SURFACE('',#803,11.55,0.5);
#704=TOROIDAL_SURFACE('',#813,11.55,0.5);
#705=TOROIDAL_SURFACE('',#818,13.2571067811866,0.5);
#706=TOROIDAL_SURFACE('',#830,14.8428932188135,0.5);
#707=TOROIDAL_SURFACE('',#832,14.8428932188135,0.5);
#708=TOROIDAL_SURFACE('',#864,6.10000000000001,1.46609131336349);
#709=TOROIDAL_SURFACE('',#885,7.5,2.61337962921956);
#710=TOROIDAL_SURFACE('',#894,7.5,2.61337962921956);
#711=TOROIDAL_SURFACE('',#921,6.10000000000001,1.46609131336349);
#712=ADVANCED_FACE('',(#168),#703,.T.);
#713=ADVANCED_FACE('',(#169),#152,.F.);
#714=ADVANCED_FACE('',(#170,#78),#93,.F.);
#715=ADVANCED_FACE('',(#171),#704,.T.);
#716=ADVANCED_FACE('',(#172,#79),#94,.T.);
#717=ADVANCED_FACE('',(#173),#705,.F.);
#718=ADVANCED_FACE('',(#174),#72,.T.);
#719=ADVANCED_FACE('',(#175),#73,.T.);
#720=ADVANCED_FACE('',(#176),#706,.T.);
#721=ADVANCED_FACE('',(#177),#707,.T.);
#722=ADVANCED_FACE('',(#178,#80),#95,.F.);
#723=ADVANCED_FACE('',(#179),#153,.T.);
#724=ADVANCED_FACE('',(#180,#81),#96,.T.);
#725=ADVANCED_FACE('',(#181),#154,.F.);
#726=ADVANCED_FACE('',(#182),#155,.T.);
#727=ADVANCED_FACE('',(#183,#82),#97,.F.);
#728=ADVANCED_FACE('',(#184),#35,.T.);
#729=ADVANCED_FACE('',(#185),#36,.T.);
#730=ADVANCED_FACE('',(#186),#37,.T.);
#731=ADVANCED_FACE('',(#187),#38,.T.);
#732=ADVANCED_FACE('',(#188),#39,.T.);
#733=ADVANCED_FACE('',(#189),#40,.T.);
#734=ADVANCED_FACE('',(#190),#41,.T.);
#735=ADVANCED_FACE('',(#191),#156,.F.);
#736=ADVANCED_FACE('',(#192),#708,.T.);
#737=ADVANCED_FACE('',(#193),#157,.F.);
#738=ADVANCED_FACE('',(#194),#158,.T.);
#739=ADVANCED_FACE('',(#195,#83),#98,.F.);
#740=ADVANCED_FACE('',(#196,#84),#99,.F.);
#741=ADVANCED_FACE('',(#197,#85),#100,.F.);
#742=ADVANCED_FACE('',(#198),#159,.T.);
#743=ADVANCED_FACE('',(#199),#74,.T.);
#744=ADVANCED_FACE('',(#200),#160,.F.);
#745=ADVANCED_FACE('',(#201),#709,.F.);
#746=ADVANCED_FACE('',(#202),#161,.F.);
#747=ADVANCED_FACE('',(#203),#75,.T.);
#748=ADVANCED_FACE('',(#204,#86),#101,.F.);
#749=ADVANCED_FACE('',(#205,#87),#102,.F.);
#750=ADVANCED_FACE('',(#206),#710,.F.);
#751=ADVANCED_FACE('',(#207),#162,.T.);
#752=ADVANCED_FACE('',(#208),#163,.T.);
#753=ADVANCED_FACE('',(#209),#76,.F.);
#754=ADVANCED_FACE('',(#210),#164,.F.);
#755=ADVANCED_FACE('',(#211),#77,.F.);
#756=ADVANCED_FACE('',(#212,#88),#103,.F.);
#757=ADVANCED_FACE('',(#213,#89),#104,.F.);
#758=ADVANCED_FACE('',(#214),#165,.F.);
#759=ADVANCED_FACE('',(#215),#166,.T.);
#760=ADVANCED_FACE('',(#216),#167,.F.);
#761=ADVANCED_FACE('',(#217),#711,.T.);
#762=ADVANCED_FACE('',(#218,#90),#105,.F.);
#763=ADVANCED_FACE('',(#219,#91),#106,.F.);
#764=ADVANCED_FACE('',(#220,#92),#107,.F.);
#765=CLOSED_SHELL('',(#712,#713,#714,#715,#716,#717,#718,#719,#720,#721));
#766=CLOSED_SHELL('',(#722,#723,#724,#725,#726,#727));
#767=CLOSED_SHELL('',(#728));
#768=CLOSED_SHELL('',(#729));
#769=CLOSED_SHELL('',(#730));
#770=CLOSED_SHELL('',(#731));
#771=CLOSED_SHELL('',(#732));
#772=CLOSED_SHELL('',(#733));
#773=CLOSED_SHELL('',(#734));
#774=CLOSED_SHELL('',(#735,#736,#737,#738,#739,#740,#741));
#775=CLOSED_SHELL('',(#742,#743,#744,#745,#746,#747,#748,#749));
#776=CLOSED_SHELL('',(#750,#751,#752,#753,#754,#755,#756,#757));
#777=CLOSED_SHELL('',(#758,#759,#760,#761,#762,#763,#764));
#778=DERIVED_UNIT_ELEMENT(#782,1.);
#779=DERIVED_UNIT_ELEMENT(#1450,-3.);
#780=DERIVED_UNIT_ELEMENT(#782,1.);
#781=DERIVED_UNIT_ELEMENT(#1450,-3.);
#782=(
MASS_UNIT()
NAMED_UNIT(*)
SI_UNIT(.KILO.,.GRAM.)
);
#783=DERIVED_UNIT((#778,#779));
#784=DERIVED_UNIT((#780,#781));
#785=MEASURE_REPRESENTATION_ITEM('density measure',
POSITIVE_RATIO_MEASURE(7850.),#783);
#786=MEASURE_REPRESENTATION_ITEM('density measure',
POSITIVE_RATIO_MEASURE(7850.),#784);
#787=PROPERTY_DEFINITION_REPRESENTATION(#797,#791);
#788=PROPERTY_DEFINITION_REPRESENTATION(#798,#792);
#789=PROPERTY_DEFINITION_REPRESENTATION(#799,#793);
#790=PROPERTY_DEFINITION_REPRESENTATION(#800,#794);
#791=REPRESENTATION('material name',(#795),#1446);
#792=REPRESENTATION('density',(#785),#1446);
#793=REPRESENTATION('material name',(#796),#1447);
#794=REPRESENTATION('density',(#786),#1447);
#795=DESCRIPTIVE_REPRESENTATION_ITEM('Steel','Steel');
#796=DESCRIPTIVE_REPRESENTATION_ITEM('Steel','Steel');
#797=PROPERTY_DEFINITION('material property','material name',#1470);
#798=PROPERTY_DEFINITION('material property','density of part',#1470);
#799=PROPERTY_DEFINITION('material property','material name',#1471);
#800=PROPERTY_DEFINITION('material property','density of part',#1471);
#801=AXIS2_PLACEMENT_3D('',#1219,#933,#934);
#802=AXIS2_PLACEMENT_3D('',#1220,#935,#936);
#803=AXIS2_PLACEMENT_3D('',#1221,#937,#938);
#804=AXIS2_PLACEMENT_3D('',#1224,#939,#940);
#805=AXIS2_PLACEMENT_3D('',#1226,#941,#942);
#806=AXIS2_PLACEMENT_3D('',#1227,#943,#944);
#807=AXIS2_PLACEMENT_3D('',#1228,#945,#946);
#808=AXIS2_PLACEMENT_3D('',#1229,#947,#948);
#809=AXIS2_PLACEMENT_3D('',#1232,#949,#950);
#810=AXIS2_PLACEMENT_3D('',#1234,#952,#953);
#811=AXIS2_PLACEMENT_3D('',#1235,#954,#955);
#812=AXIS2_PLACEMENT_3D('',#1237,#956,#957);
#813=AXIS2_PLACEMENT_3D('',#1238,#958,#959);
#814=AXIS2_PLACEMENT_3D('',#1240,#960,#961);
#815=AXIS2_PLACEMENT_3D('',#1241,#962,#963);
#816=AXIS2_PLACEMENT_3D('',#1242,#964,#965);
#817=AXIS2_PLACEMENT_3D('',#1244,#966,#967);
#818=AXIS2_PLACEMENT_3D('',#1245,#968,#969);
#819=AXIS2_PLACEMENT_3D('',#1248,#970,#971);
#820=AXIS2_PLACEMENT_3D('',#1250,#972,#973);
#821=AXIS2_PLACEMENT_3D('',#1252,#974,#975);
#822=AXIS2_PLACEMENT_3D('',#1253,#976,#977);
#823=AXIS2_PLACEMENT_3D('',#1254,#978,#979);
#824=AXIS2_PLACEMENT_3D('',#1255,#980,#981);
#825=AXIS2_PLACEMENT_3D('',#1258,#982,#983);
#826=AXIS2_PLACEMENT_3D('',#1259,#984,#985);
#827=AXIS2_PLACEMENT_3D('',#1261,#987,#988);
#828=AXIS2_PLACEMENT_3D('',#1265,#990,#991);
#829=AXIS2_PLACEMENT_3D('',#1266,#992,#993);
#830=AXIS2_PLACEMENT_3D('',#1267,#994,#995);
#831=AXIS2_PLACEMENT_3D('',#1268,#996,#997);
#832=AXIS2_PLACEMENT_3D('',#1269,#998,#999);
#833=AXIS2_PLACEMENT_3D('',#1270,#1000,#1001);
#834=AXIS2_PLACEMENT_3D('',#1271,#1002,#1003);
#835=AXIS2_PLACEMENT_3D('',#1273,#1004,#1005);
#836=AXIS2_PLACEMENT_3D('',#1275,#1006,#1007);
#837=AXIS2_PLACEMENT_3D('',#1276,#1008,#1009);
#838=AXIS2_PLACEMENT_3D('',#1278,#1010,#1011);
#839=AXIS2_PLACEMENT_3D('',#1280,#1013,#1014);
#840=AXIS2_PLACEMENT_3D('',#1282,#1015,#1016);
#841=AXIS2_PLACEMENT_3D('',#1283,#1017,#1018);
#842=AXIS2_PLACEMENT_3D('',#1286,#1020,#1021);
#843=AXIS2_PLACEMENT_3D('',#1287,#1022,#1023);
#844=AXIS2_PLACEMENT_3D('',#1290,#1025,#1026);
#845=AXIS2_PLACEMENT_3D('',#1291,#1027,#1028);
#846=AXIS2_PLACEMENT_3D('',#1292,#1029,#1030);
#847=AXIS2_PLACEMENT_3D('',#1293,#1031,#1032);
#848=AXIS2_PLACEMENT_3D('',#1296,#1033,#1034);
#849=AXIS2_PLACEMENT_3D('',#1297,#1035,#1036);
#850=AXIS2_PLACEMENT_3D('',#1300,#1037,#1038);
#851=AXIS2_PLACEMENT_3D('',#1301,#1039,#1040);
#852=AXIS2_PLACEMENT_3D('',#1304,#1041,#1042);
#853=AXIS2_PLACEMENT_3D('',#1305,#1043,#1044);
#854=AXIS2_PLACEMENT_3D('',#1308,#1045,#1046);
#855=AXIS2_PLACEMENT_3D('',#1309,#1047,#1048);
#856=AXIS2_PLACEMENT_3D('',#1312,#1049,#1050);
#857=AXIS2_PLACEMENT_3D('',#1313,#1051,#1052);
#858=AXIS2_PLACEMENT_3D('',#1316,#1053,#1054);
#859=AXIS2_PLACEMENT_3D('',#1317,#1055,#1056);
#860=AXIS2_PLACEMENT_3D('',#1320,#1057,#1058);
#861=AXIS2_PLACEMENT_3D('',#1321,#1059,#1060);
#862=AXIS2_PLACEMENT_3D('',#1323,#1061,#1062);
#863=AXIS2_PLACEMENT_3D('',#1326,#1064,#1065);
#864=AXIS2_PLACEMENT_3D('',#1327,#1066,#1067);
#865=AXIS2_PLACEMENT_3D('',#1329,#1068,#1069);
#866=AXIS2_PLACEMENT_3D('',#1331,#1070,#1071);
#867=AXIS2_PLACEMENT_3D('',#1332,#1072,#1073);
#868=AXIS2_PLACEMENT_3D('',#1333,#1074,#1075);
#869=AXIS2_PLACEMENT_3D('',#1335,#1076,#1077);
#870=AXIS2_PLACEMENT_3D('',#1337,#1079,#1080);
#871=AXIS2_PLACEMENT_3D('',#1339,#1081,#1082);
#872=AXIS2_PLACEMENT_3D('',#1342,#1084,#1085);
#873=AXIS2_PLACEMENT_3D('',#1343,#1086,#1087);
#874=AXIS2_PLACEMENT_3D('',#1344,#1088,#1089);
#875=AXIS2_PLACEMENT_3D('',#1345,#1090,#1091);
#876=AXIS2_PLACEMENT_3D('',#1346,#1092,#1093);
#877=AXIS2_PLACEMENT_3D('',#1349,#1094,#1095);
#878=AXIS2_PLACEMENT_3D('',#1350,#1096,#1097);
#879=AXIS2_PLACEMENT_3D('',#1353,#1099,#1100);
#880=AXIS2_PLACEMENT_3D('',#1354,#1101,#1102);
#881=AXIS2_PLACEMENT_3D('',#1357,#1104,#1105);
#882=AXIS2_PLACEMENT_3D('',#1358,#1106,#1107);
#883=AXIS2_PLACEMENT_3D('',#1360,#1108,#1109);
#884=AXIS2_PLACEMENT_3D('',#1363,#1111,#1112);
#885=AXIS2_PLACEMENT_3D('',#1364,#1113,#1114);
#886=AXIS2_PLACEMENT_3D('',#1366,#1115,#1116);
#887=AXIS2_PLACEMENT_3D('',#1367,#1117,#1118);
#888=AXIS2_PLACEMENT_3D('',#1368,#1119,#1120);
#889=AXIS2_PLACEMENT_3D('',#1371,#1122,#1123);
#890=AXIS2_PLACEMENT_3D('',#1372,#1124,#1125);
#891=AXIS2_PLACEMENT_3D('',#1375,#1127,#1128);
#892=AXIS2_PLACEMENT_3D('',#1376,#1129,#1130);
#893=AXIS2_PLACEMENT_3D('',#1377,#1131,#1132);
#894=AXIS2_PLACEMENT_3D('',#1378,#1133,#1134);
#895=AXIS2_PLACEMENT_3D('',#1380,#1135,#1136);
#896=AXIS2_PLACEMENT_3D('',#1382,#1137,#1138);
#897=AXIS2_PLACEMENT_3D('',#1383,#1139,#1140);
#898=AXIS2_PLACEMENT_3D('',#1384,#1141,#1142);
#899=AXIS2_PLACEMENT_3D('',#1386,#1143,#1144);
#900=AXIS2_PLACEMENT_3D('',#1388,#1146,#1147);
#901=AXIS2_PLACEMENT_3D('',#1391,#1149,#1150);
#902=AXIS2_PLACEMENT_3D('',#1392,#1151,#1152);
#903=AXIS2_PLACEMENT_3D('',#1395,#1153,#1154);
#904=AXIS2_PLACEMENT_3D('',#1398,#1156,#1157);
#905=AXIS2_PLACEMENT_3D('',#1399,#1158,#1159);
#906=AXIS2_PLACEMENT_3D('',#1400,#1160,#1161);
#907=AXIS2_PLACEMENT_3D('',#1403,#1163,#1164);
#908=AXIS2_PLACEMENT_3D('',#1404,#1165,#1166);
#909=AXIS2_PLACEMENT_3D('',#1407,#1168,#1169);
#910=AXIS2_PLACEMENT_3D('',#1408,#1170,#1171);
#911=AXIS2_PLACEMENT_3D('',#1409,#1172,#1173);
#912=AXIS2_PLACEMENT_3D('',#1410,#1174,#1175);
#913=AXIS2_PLACEMENT_3D('',#1412,#1176,#1177);
#914=AXIS2_PLACEMENT_3D('',#1415,#1179,#1180);
#915=AXIS2_PLACEMENT_3D('',#1416,#1181,#1182);
#916=AXIS2_PLACEMENT_3D('',#1418,#1183,#1184);
#917=AXIS2_PLACEMENT_3D('',#1421,#1186,#1187);
#918=AXIS2_PLACEMENT_3D('',#1422,#1188,#1189);
#919=AXIS2_PLACEMENT_3D('',#1424,#1190,#1191);
#920=AXIS2_PLACEMENT_3D('',#1427,#1193,#1194);
#921=AXIS2_PLACEMENT_3D('',#1428,#1195,#1196);
#922=AXIS2_PLACEMENT_3D('',#1430,#1197,#1198);
#923=AXIS2_PLACEMENT_3D('',#1431,#1199,#1200);
#924=AXIS2_PLACEMENT_3D('',#1432,#1201,#1202);
#925=AXIS2_PLACEMENT_3D('',#1433,#1203,#1204);
#926=AXIS2_PLACEMENT_3D('',#1434,#1205,#1206);
#927=AXIS2_PLACEMENT_3D('',#1435,#1207,#1208);
#928=AXIS2_PLACEMENT_3D('',#1436,#1209,#1210);
#929=AXIS2_PLACEMENT_3D('',#1437,#1211,#1212);
#930=AXIS2_PLACEMENT_3D('',#1438,#1213,#1214);
#931=AXIS2_PLACEMENT_3D('',#1439,#1215,#1216);
#932=AXIS2_PLACEMENT_3D('',#1440,#1217,#1218);
#933=DIRECTION('axis',(0.,0.,1.));
#934=DIRECTION('refdir',(1.,0.,0.));
#935=DIRECTION('axis',(0.,0.,1.));
#936=DIRECTION('refdir',(1.,0.,0.));
#937=DIRECTION('center_axis',(0.,0.,-1.));
#938=DIRECTION('ref_axis',(-1.,0.,0.));
#939=DIRECTION('center_axis',(0.,0.,1.));
#940=DIRECTION('ref_axis',(1.,0.,0.));
#941=DIRECTION('center_axis',(-1.22464679914735E-16,-1.,0.));
#942=DIRECTION('ref_axis',(1.,-1.22464679914735E-16,0.));
#943=DIRECTION('center_axis',(0.,0.,-1.));
#944=DIRECTION('ref_axis',(1.,0.,0.));
#945=DIRECTION('center_axis',(0.,0.,1.));
#946=DIRECTION('ref_axis',(1.,0.,0.));
#947=DIRECTION('center_axis',(0.,0.,1.));
#948=DIRECTION('ref_axis',(1.,0.,0.));
#949=DIRECTION('center_axis',(0.,0.,-1.));
#950=DIRECTION('ref_axis',(1.,0.,0.));
#951=DIRECTION('',(0.,0.,-1.));
#952=DIRECTION('center_axis',(0.,0.,-1.));
#953=DIRECTION('ref_axis',(1.,0.,0.));
#954=DIRECTION('center_axis',(0.,0.,1.));
#955=DIRECTION('ref_axis',(1.,0.,0.));
#956=DIRECTION('center_axis',(0.,0.,1.));
#957=DIRECTION('ref_axis',(1.,0.,0.));
#958=DIRECTION('center_axis',(0.,0.,-1.));
#959=DIRECTION('ref_axis',(-1.,0.,0.));
#960=DIRECTION('center_axis',(0.,0.,1.));
#961=DIRECTION('ref_axis',(1.,0.,0.));
#962=DIRECTION('center_axis',(-1.22464679914735E-16,-1.,0.));
#963=DIRECTION('ref_axis',(1.,-1.22464679914735E-16,0.));
#964=DIRECTION('center_axis',(0.,0.,1.));
#965=DIRECTION('ref_axis',(1.,0.,0.));
#966=DIRECTION('center_axis',(0.,0.,-1.));
#967=DIRECTION('ref_axis',(1.,0.,0.));
#968=DIRECTION('center_axis',(0.,0.,-1.));
#969=DIRECTION('ref_axis',(-1.,0.,0.));
#970=DIRECTION('center_axis',(0.,0.,-1.));
#971=DIRECTION('ref_axis',(-3.06161699786838E-17,-1.,0.));
#972=DIRECTION('center_axis',(-1.22464679914735E-16,-1.,0.));
#973=DIRECTION('ref_axis',(1.,-1.22464679914735E-16,0.));
#974=DIRECTION('center_axis',(0.,0.,1.));
#975=DIRECTION('ref_axis',(-3.06161699786838E-17,-1.,0.));
#976=DIRECTION('center_axis',(0.,0.,1.));
#977=DIRECTION('ref_axis',(-3.06161699786838E-17,-1.,0.));
#978=DIRECTION('center_axis',(0.,0.,-1.));
#979=DIRECTION('ref_axis',(-3.06161699786838E-17,-1.,0.));
#980=DIRECTION('center_axis',(0.,0.,1.));
#981=DIRECTION('ref_axis',(0.,1.,0.));
#982=DIRECTION('center_axis',(0.,0.,1.));
#983=DIRECTION('ref_axis',(1.,0.,0.));
#984=DIRECTION('center_axis',(0.,0.,1.));
#985=DIRECTION('ref_axis',(1.,0.,0.));
#986=DIRECTION('',(8.65956056235494E-17,0.707106781186548,-0.707106781186547));
#987=DIRECTION('center_axis',(0.,0.,-1.));
#988=DIRECTION('ref_axis',(0.,1.,0.));
#989=DIRECTION('',(-8.65956056235494E-17,-0.707106781186548,-0.707106781186547));
#990=DIRECTION('center_axis',(0.,0.,-1.));
#991=DIRECTION('ref_axis',(1.,0.,0.));
#992=DIRECTION('center_axis',(0.,0.,-1.));
#993=DIRECTION('ref_axis',(1.,0.,0.));
#994=DIRECTION('center_axis',(0.,0.,1.));
#995=DIRECTION('ref_axis',(1.,0.,0.));
#996=DIRECTION('center_axis',(1.22464679914735E-16,-1.,0.));
#997=DIRECTION('ref_axis',(-1.,-1.22464679914735E-16,0.));
#998=DIRECTION('center_axis',(0.,0.,1.));
#999=DIRECTION('ref_axis',(1.,0.,0.));
#1000=DIRECTION('center_axis',(1.22464679914735E-16,-1.,0.));
#1001=DIRECTION('ref_axis',(-1.,-1.22464679914735E-16,0.));
#1002=DIRECTION('center_axis',(0.,0.,1.));
#1003=DIRECTION('ref_axis',(-1.,0.,0.));
#1004=DIRECTION('center_axis',(0.,0.,1.));
#1005=DIRECTION('ref_axis',(-1.,0.,0.));
#1006=DIRECTION('center_axis',(0.,0.,1.));
#1007=DIRECTION('ref_axis',(1.,0.,0.));
#1008=DIRECTION('center_axis',(0.,0.,1.));
#1009=DIRECTION('ref_axis',(-1.,0.,0.));
#1010=DIRECTION('center_axis',(0.,0.,1.));
#1011=DIRECTION('ref_axis',(-1.,0.,0.));
#1012=DIRECTION('',(0.,0.,-1.));
#1013=DIRECTION('center_axis',(0.,0.,1.));
#1014=DIRECTION('ref_axis',(-1.,0.,0.));
#1015=DIRECTION('center_axis',(0.,0.,-1.));
#1016=DIRECTION('ref_axis',(-1.,0.,0.));
#1017=DIRECTION('center_axis',(0.,0.,1.));
#1018=DIRECTION('ref_axis',(1.,0.,0.));
#1019=DIRECTION('',(0.,0.,-1.));
#1020=DIRECTION('center_axis',(0.,0.,-1.));
#1021=DIRECTION('ref_axis',(1.,0.,0.));
#1022=DIRECTION('center_axis',(0.,0.,1.));
#1023=DIRECTION('ref_axis',(1.,0.,0.));
#1024=DIRECTION('',(0.,0.,-1.));
#1025=DIRECTION('center_axis',(0.,0.,1.));
#1026=DIRECTION('ref_axis',(1.,0.,0.));
#1027=DIRECTION('center_axis',(0.,0.,1.));
#1028=DIRECTION('ref_axis',(1.,0.,0.));
#1029=DIRECTION('axis',(0.,0.,1.));
#1030=DIRECTION('refdir',(1.,0.,0.));
#1031=DIRECTION('center_axis',(-1.,0.,0.));
#1032=DIRECTION('ref_axis',(0.,1.,0.));
#1033=DIRECTION('center_axis',(0.,1.22464679914735E-16,1.));
#1034=DIRECTION('ref_axis',(0.,-1.,1.22464679914735E-16));
#1035=DIRECTION('center_axis',(-0.623489801858732,0.781831482468031,0.));
#1036=DIRECTION('ref_axis',(0.781831482468031,0.623489801858732,0.));
#1037=DIRECTION('center_axis',(9.57467422477104E-17,7.63554790147314E-17,
1.));
#1038=DIRECTION('ref_axis',(-0.781831482468031,-0.623489801858732,1.22464679914735E-16));
#1039=DIRECTION('center_axis',(0.222520933956318,0.974927912181823,0.));
#1040=DIRECTION('ref_axis',(0.974927912181823,-0.222520933956318,0.));
#1041=DIRECTION('center_axis',(1.19394234705288E-16,-2.72509549512885E-17,
1.));
#1042=DIRECTION('ref_axis',(-0.974927912181823,0.222520933956318,1.22464679914735E-16));
#1043=DIRECTION('center_axis',(0.900968867902422,0.433883739117553,0.));
#1044=DIRECTION('ref_axis',(0.433883739117553,-0.900968867902422,0.));
#1045=DIRECTION('center_axis',(5.31354332312396E-17,-1.10336864020811E-16,
1.));
#1046=DIRECTION('ref_axis',(-0.433883739117553,0.900968867902422,1.22464679914735E-16));
#1047=DIRECTION('center_axis',(0.900968867902416,-0.433883739117565,0.));
#1048=DIRECTION('ref_axis',(-0.433883739117565,-0.900968867902416,0.));
#1049=DIRECTION('center_axis',(-5.31354332312411E-17,-1.10336864020811E-16,
1.));
#1050=DIRECTION('ref_axis',(0.433883739117565,0.900968867902416,1.22464679914735E-16));
#1051=DIRECTION('center_axis',(0.222520933956305,-0.974927912181826,0.));
#1052=DIRECTION('ref_axis',(-0.974927912181826,-0.222520933956305,0.));
#1053=DIRECTION('center_axis',(-1.19394234705288E-16,-2.72509549512868E-17,
1.));
#1054=DIRECTION('ref_axis',(0.974927912181826,0.222520933956305,1.22464679914735E-16));
#1055=DIRECTION('center_axis',(-0.623489801858743,-0.781831482468022,0.));
#1056=DIRECTION('ref_axis',(-0.781831482468022,0.623489801858743,0.));
#1057=DIRECTION('center_axis',(-9.57467422477093E-17,7.63554790147327E-17,
1.));
#1058=DIRECTION('ref_axis',(0.781831482468022,-0.623489801858743,1.22464679914735E-16));
#1059=DIRECTION('center_axis',(0.,0.,1.));
#1060=DIRECTION('ref_axis',(1.,0.,0.));
#1061=DIRECTION('center_axis',(0.,0.,1.));
#1062=DIRECTION('ref_axis',(1.,0.,0.));
#1063=DIRECTION('',(0.,0.,1.));
#1064=DIRECTION('center_axis',(0.,0.,1.));
#1065=DIRECTION('ref_axis',(1.,0.,0.));
#1066=DIRECTION('center_axis',(0.,0.,1.));
#1067=DIRECTION('ref_axis',(1.,0.,0.));
#1068=DIRECTION('center_axis',(0.,0.,1.));
#1069=DIRECTION('ref_axis',(1.,0.,0.));
#1070=DIRECTION('center_axis',(1.22464679914735E-16,-1.,0.));
#1071=DIRECTION('ref_axis',(-1.,-1.22464679914735E-16,0.));
#1072=DIRECTION('center_axis',(0.,0.,1.));
#1073=DIRECTION('ref_axis',(1.,0.,0.));
#1074=DIRECTION('center_axis',(0.,0.,1.));
#1075=DIRECTION('ref_axis',(1.,0.,0.));
#1076=DIRECTION('center_axis',(0.,0.,1.));
#1077=DIRECTION('ref_axis',(1.,0.,0.));
#1078=DIRECTION('',(0.,0.,1.));
#1079=DIRECTION('center_axis',(0.,0.,1.));
#1080=DIRECTION('ref_axis',(1.,0.,0.));
#1081=DIRECTION('center_axis',(0.,0.,1.));
#1082=DIRECTION('ref_axis',(1.,0.,0.));
#1083=DIRECTION('',(0.,0.,-1.));
#1084=DIRECTION('center_axis',(0.,0.,1.));
#1085=DIRECTION('ref_axis',(1.,0.,0.));
#1086=DIRECTION('center_axis',(0.,0.,-1.));
#1087=DIRECTION('ref_axis',(-1.,0.,0.));
#1088=DIRECTION('center_axis',(0.,0.,1.));
#1089=DIRECTION('ref_axis',(1.,0.,0.));
#1090=DIRECTION('center_axis',(0.,0.,-1.));
#1091=DIRECTION('ref_axis',(-1.,0.,0.));
#1092=DIRECTION('center_axis',(0.,0.,1.));
#1093=DIRECTION('ref_axis',(1.,0.,0.));
#1094=DIRECTION('center_axis',(0.,0.,1.));
#1095=DIRECTION('ref_axis',(1.,0.,0.));
#1096=DIRECTION('center_axis',(0.,0.,1.));
#1097=DIRECTION('ref_axis',(1.,0.,0.));
#1098=DIRECTION('',(0.,0.,-1.));
#1099=DIRECTION('center_axis',(0.,0.,1.));
#1100=DIRECTION('ref_axis',(1.,0.,0.));
#1101=DIRECTION('center_axis',(0.,0.,1.));
#1102=DIRECTION('ref_axis',(1.,0.,0.));
#1103=DIRECTION('',(0.707106781186543,8.65956056235488E-17,-0.707106781186552));
#1104=DIRECTION('center_axis',(0.,0.,1.));
#1105=DIRECTION('ref_axis',(1.,0.,0.));
#1106=DIRECTION('center_axis',(0.,0.,1.));
#1107=DIRECTION('ref_axis',(1.,0.,0.));
#1108=DIRECTION('center_axis',(0.,0.,1.));
#1109=DIRECTION('ref_axis',(1.,0.,0.));
#1110=DIRECTION('',(0.,0.,1.));
#1111=DIRECTION('center_axis',(0.,0.,1.));
#1112=DIRECTION('ref_axis',(1.,0.,0.));
#1113=DIRECTION('center_axis',(0.,0.,1.));
#1114=DIRECTION('ref_axis',(1.,0.,0.));
#1115=DIRECTION('center_axis',(-1.22464679914735E-16,1.,0.));
#1116=DIRECTION('ref_axis',(-1.,-1.22464679914735E-16,0.));
#1117=DIRECTION('center_axis',(0.,0.,1.));
#1118=DIRECTION('ref_axis',(1.,0.,0.));
#1119=DIRECTION('center_axis',(0.,0.,1.));
#1120=DIRECTION('ref_axis',(1.,0.,0.));
#1121=DIRECTION('',(0.,0.,1.));
#1122=DIRECTION('center_axis',(0.,0.,1.));
#1123=DIRECTION('ref_axis',(1.,0.,0.));
#1124=DIRECTION('center_axis',(0.,0.,-1.));
#1125=DIRECTION('ref_axis',(-1.,0.,0.));
#1126=DIRECTION('',(-0.707106781186547,8.65956056235492E-17,0.707106781186548));
#1127=DIRECTION('center_axis',(0.,0.,1.));
#1128=DIRECTION('ref_axis',(1.,0.,0.));
#1129=DIRECTION('center_axis',(0.,0.,-1.));
#1130=DIRECTION('ref_axis',(-1.,0.,0.));
#1131=DIRECTION('center_axis',(0.,0.,1.));
#1132=DIRECTION('ref_axis',(1.,0.,0.));
#1133=DIRECTION('center_axis',(0.,0.,1.));
#1134=DIRECTION('ref_axis',(1.,0.,0.));
#1135=DIRECTION('center_axis',(0.,0.,1.));
#1136=DIRECTION('ref_axis',(1.,0.,0.));
#1137=DIRECTION('center_axis',(-1.22464679914735E-16,1.,0.));
#1138=DIRECTION('ref_axis',(-1.,-1.22464679914735E-16,0.));
#1139=DIRECTION('center_axis',(0.,0.,1.));
#1140=DIRECTION('ref_axis',(1.,0.,0.));
#1141=DIRECTION('center_axis',(0.,0.,1.));
#1142=DIRECTION('ref_axis',(1.,0.,0.));
#1143=DIRECTION('center_axis',(0.,0.,1.));
#1144=DIRECTION('ref_axis',(1.,0.,0.));
#1145=DIRECTION('',(0.,0.,-1.));
#1146=DIRECTION('center_axis',(0.,0.,1.));
#1147=DIRECTION('ref_axis',(1.,0.,0.));
#1148=DIRECTION('',(0.,0.,-1.));
#1149=DIRECTION('center_axis',(0.,0.,1.));
#1150=DIRECTION('ref_axis',(1.,0.,0.));
#1151=DIRECTION('center_axis',(0.,0.,-1.));
#1152=DIRECTION('ref_axis',(-1.,0.,0.));
#1153=DIRECTION('center_axis',(0.,0.,1.));
#1154=DIRECTION('ref_axis',(1.,0.,0.));
#1155=DIRECTION('',(0.707106781186547,-8.65956056235492E-17,-0.707106781186548));
#1156=DIRECTION('center_axis',(0.,0.,1.));
#1157=DIRECTION('ref_axis',(1.,0.,0.));
#1158=DIRECTION('center_axis',(0.,0.,1.));
#1159=DIRECTION('ref_axis',(1.,0.,0.));
#1160=DIRECTION('center_axis',(0.,0.,1.));
#1161=DIRECTION('ref_axis',(1.,0.,0.));
#1162=DIRECTION('',(0.,0.,1.));
#1163=DIRECTION('center_axis',(0.,0.,1.));
#1164=DIRECTION('ref_axis',(1.,0.,0.));
#1165=DIRECTION('center_axis',(0.,0.,1.));
#1166=DIRECTION('ref_axis',(1.,0.,0.));
#1167=DIRECTION('',(-0.707106781186548,-8.65956056235494E-17,0.707106781186547));
#1168=DIRECTION('center_axis',(0.,0.,1.));
#1169=DIRECTION('ref_axis',(1.,0.,0.));
#1170=DIRECTION('center_axis',(0.,0.,1.));
#1171=DIRECTION('ref_axis',(1.,0.,0.));
#1172=DIRECTION('center_axis',(0.,0.,-1.));
#1173=DIRECTION('ref_axis',(-1.,0.,0.));
#1174=DIRECTION('center_axis',(0.,0.,1.));
#1175=DIRECTION('ref_axis',(1.,0.,0.));
#1176=DIRECTION('center_axis',(0.,0.,1.));
#1177=DIRECTION('ref_axis',(1.,0.,0.));
#1178=DIRECTION('',(0.,0.,1.));
#1179=DIRECTION('center_axis',(0.,0.,1.));
#1180=DIRECTION('ref_axis',(1.,0.,0.));
#1181=DIRECTION('center_axis',(0.,0.,1.));
#1182=DIRECTION('ref_axis',(1.,0.,0.));
#1183=DIRECTION('center_axis',(0.,0.,1.));
#1184=DIRECTION('ref_axis',(1.,0.,0.));
#1185=DIRECTION('',(0.,0.,-1.));
#1186=DIRECTION('center_axis',(0.,0.,1.));
#1187=DIRECTION('ref_axis',(1.,0.,0.));
#1188=DIRECTION('center_axis',(0.,0.,1.));
#1189=DIRECTION('ref_axis',(1.,0.,0.));
#1190=DIRECTION('center_axis',(0.,0.,1.));
#1191=DIRECTION('ref_axis',(1.,0.,0.));
#1192=DIRECTION('',(0.,0.,1.));
#1193=DIRECTION('center_axis',(0.,0.,1.));
#1194=DIRECTION('ref_axis',(1.,0.,0.));
#1195=DIRECTION('center_axis',(0.,0.,1.));
#1196=DIRECTION('ref_axis',(1.,0.,0.));
#1197=DIRECTION('center_axis',(0.,0.,1.));
#1198=DIRECTION('ref_axis',(1.,0.,0.));
#1199=DIRECTION('center_axis',(1.22464679914735E-16,-1.,0.));
#1200=DIRECTION('ref_axis',(-1.,-1.22464679914735E-16,0.));
#1201=DIRECTION('center_axis',(0.,0.,1.));
#1202=DIRECTION('ref_axis',(1.,0.,0.));
#1203=DIRECTION('center_axis',(0.,0.,1.));
#1204=DIRECTION('ref_axis',(1.,0.,0.));
#1205=DIRECTION('center_axis',(0.,0.,-1.));
#1206=DIRECTION('ref_axis',(-1.,0.,0.));
#1207=DIRECTION('',(0.,0.,1.));
#1208=DIRECTION('',(1.,0.,0.));
#1209=DIRECTION('',(0.,0.,1.));
#1210=DIRECTION('',(1.,0.,0.));
#1211=DIRECTION('',(0.,0.,1.));
#1212=DIRECTION('',(1.,0.,0.));
#1213=DIRECTION('',(0.,0.,1.));
#1214=DIRECTION('',(1.,0.,0.));
#1215=DIRECTION('',(4.31525986887935E-15,2.36321893449511E-15,1.));
#1216=DIRECTION('',(0.866025403784439,0.5,-4.91873413762858E-15));
#1217=DIRECTION('',(0.,2.36321893449511E-15,1.));
#1218=DIRECTION('',(1.,1.01979038294026E-29,0.));
#1219=CARTESIAN_POINT('',(0.,0.,0.));
#1220=CARTESIAN_POINT('',(0.,0.,0.));
#1221=CARTESIAN_POINT('Origin',(0.,0.,0.5));
#1222=CARTESIAN_POINT('',(-11.05,-1.35323471305783E-15,0.5));
#1223=CARTESIAN_POINT('',(11.05,-1.35323471305783E-15,0.5));
#1224=CARTESIAN_POINT('Origin',(0.,0.,0.5));
#1225=CARTESIAN_POINT('',(11.55,-1.41446705301519E-15,0.));
#1226=CARTESIAN_POINT('Origin',(11.55,-1.41446705301519E-15,0.5));
#1227=CARTESIAN_POINT('Origin',(0.,0.,0.));
#1228=CARTESIAN_POINT('Origin',(0.,0.,0.5));
#1229=CARTESIAN_POINT('Origin',(0.,0.,0.));
#1230=CARTESIAN_POINT('',(-11.05,1.35323471305783E-15,6.5));
#1231=CARTESIAN_POINT('',(11.05,-1.35323471305783E-15,6.5));
#1232=CARTESIAN_POINT('Origin',(0.,0.,6.5));
#1233=CARTESIAN_POINT('',(-11.05,-1.35323471305783E-15,0.));
#1234=CARTESIAN_POINT('Origin',(0.,0.,6.5));
#1235=CARTESIAN_POINT('Origin',(0.,0.,0.));
#1236=CARTESIAN_POINT('',(-14.8428932188135,-1.81773016705059E-15,0.));
#1237=CARTESIAN_POINT('Origin',(0.,0.,0.));
#1238=CARTESIAN_POINT('Origin',(0.,0.,6.5));
#1239=CARTESIAN_POINT('',(11.55,-1.41446705301519E-15,7.));
#1240=CARTESIAN_POINT('Origin',(0.,0.,7.));
#1241=CARTESIAN_POINT('Origin',(11.55,-1.41446705301519E-15,6.5));
#1242=CARTESIAN_POINT('Origin',(0.,0.,7.));
#1243=CARTESIAN_POINT('',(-14.8428932188135,1.81773016705059E-15,7.));
#1244=CARTESIAN_POINT('Origin',(0.,0.,7.));
#1245=CARTESIAN_POINT('Origin',(0.,0.,3.5));
#1246=CARTESIAN_POINT('',(-1.5802295357417E-15,-12.9035533905933,3.85355339059327));
#1247=CARTESIAN_POINT('',(12.9035533905933,-1.5802295357417E-15,3.85355339059327));
#1248=CARTESIAN_POINT('Origin',(-1.18517215180628E-15,0.,3.85355339059327));
#1249=CARTESIAN_POINT('',(12.9035533905933,-1.5802295357417E-15,3.14644660940673));
#1250=CARTESIAN_POINT('Origin',(13.2571067811866,-1.62352733855348E-15,
3.5));
#1251=CARTESIAN_POINT('',(-1.5802295357417E-15,-12.9035533905933,3.14644660940673));
#1252=CARTESIAN_POINT('Origin',(-1.18517215180628E-15,0.,3.14644660940673));
#1253=CARTESIAN_POINT('Origin',(-1.18517215180628E-15,0.,3.14644660940673));
#1254=CARTESIAN_POINT('Origin',(-1.18517215180628E-15,0.,3.85355339059327));
#1255=CARTESIAN_POINT('Origin',(0.,0.,5.25));
#1256=CARTESIAN_POINT('',(-15.1964466094067,-9.3051398493118E-16,6.14644660940673));
#1257=CARTESIAN_POINT('',(-1.86102796986236E-15,-15.1964466094067,6.14644660940673));
#1258=CARTESIAN_POINT('Origin',(0.,9.3051398493118E-16,6.14644660940673));
#1259=CARTESIAN_POINT('Origin',(0.,9.3051398493118E-16,6.14644660940673));
#1260=CARTESIAN_POINT('',(-1.75124492278072E-15,-14.3,5.25));
#1261=CARTESIAN_POINT('Origin',(0.,0.,1.75));
#1262=CARTESIAN_POINT('',(-1.86102796986236E-15,-15.1964466094067,0.853553390593273));
#1263=CARTESIAN_POINT('',(-1.75124492278072E-15,-14.3,1.75));
#1264=CARTESIAN_POINT('',(-15.1964466094067,2.79154195479354E-15,0.853553390593274));
#1265=CARTESIAN_POINT('Origin',(0.,9.3051398493118E-16,0.853553390593274));
#1266=CARTESIAN_POINT('Origin',(0.,9.3051398493118E-16,0.853553390593274));
#1267=CARTESIAN_POINT('Origin',(0.,0.,6.5));
#1268=CARTESIAN_POINT('Origin',(-14.8428932188135,-1.81773016705059E-15,
6.5));
#1269=CARTESIAN_POINT('Origin',(0.,0.,0.5));
#1270=CARTESIAN_POINT('Origin',(-14.8428932188135,-1.81773016705059E-15,
0.5));
#1271=CARTESIAN_POINT('Origin',(0.,0.,7.));
#1272=CARTESIAN_POINT('',(6.00000008940697,7.34788090437607E-16,7.));
#1273=CARTESIAN_POINT('Origin',(0.,0.,7.));
#1274=CARTESIAN_POINT('',(-3.95,-4.83735485663205E-16,7.));
#1275=CARTESIAN_POINT('Origin',(0.,0.,7.));
#1276=CARTESIAN_POINT('Origin',(0.,0.,7.));
#1277=CARTESIAN_POINT('',(6.00000008940697,7.34788090437607E-16,8.));
#1278=CARTESIAN_POINT('Origin',(0.,0.,8.));
#1279=CARTESIAN_POINT('',(6.00000008940697,7.34788090437607E-16,7.));
#1280=CARTESIAN_POINT('Origin',(0.,0.,8.));
#1281=CARTESIAN_POINT('',(-2.,-2.44929359829471E-16,8.));
#1282=CARTESIAN_POINT('Origin',(0.,0.,8.));
#1283=CARTESIAN_POINT('Origin',(0.,0.,0.));
#1284=CARTESIAN_POINT('',(-2.,-2.44929359829471E-16,0.));
#1285=CARTESIAN_POINT('',(-2.,-2.44929359829471E-16,0.));
#1286=CARTESIAN_POINT('Origin',(0.,0.,0.));
#1287=CARTESIAN_POINT('Origin',(0.,0.,0.));
#1288=CARTESIAN_POINT('',(-3.95,-4.83735485663205E-16,0.));
#1289=CARTESIAN_POINT('',(-3.95,-4.83735485663205E-16,0.));
#1290=CARTESIAN_POINT('Origin',(0.,0.,0.));
#1291=CARTESIAN_POINT('Origin',(0.,0.,0.));
#1292=CARTESIAN_POINT('',(0.,0.,0.));
#1293=CARTESIAN_POINT('Origin',(0.,7.5,0.));
#1294=CARTESIAN_POINT('',(-2.61337962921956,7.5,1.95972083236562E-32));
#1295=CARTESIAN_POINT('',(2.61337962921956,7.5,1.95972083236562E-32));
#1296=CARTESIAN_POINT('Origin',(0.,7.5,0.));
#1297=CARTESIAN_POINT('Origin',(5.86373611851023,4.67617351394049,0.));
#1298=CARTESIAN_POINT('',(4.23432057130648,6.71939598370497,5.0412087433852E-32));
#1299=CARTESIAN_POINT('',(7.49315166571398,2.63295104417601,-1.12176707865395E-32));
#1300=CARTESIAN_POINT('Origin',(5.86373611851023,4.67617351394049,0.));
#1301=CARTESIAN_POINT('Origin',(7.31195934136367,-1.66890700467239,0.));
#1302=CARTESIAN_POINT('',(7.89349101724002,0.878949740981143,3.50046478787541E-32));
#1303=CARTESIAN_POINT('',(6.73042766548732,-4.21676375032592,4.18976876855836E-33));
#1304=CARTESIAN_POINT('Origin',(7.31195934136367,-1.66890700467239,0.));
#1305=CARTESIAN_POINT('Origin',(3.25412804338165,-6.75726650926816,0.));
#1306=CARTESIAN_POINT('',(5.60870172931884,-5.62336358400874,4.18976876855836E-33));
#1307=CARTESIAN_POINT('',(0.899554357444449,-7.89116943452759,3.50046478787541E-32));
#1308=CARTESIAN_POINT('Origin',(3.25412804338165,-6.75726650926816,0.));
#1309=CARTESIAN_POINT('Origin',(-3.25412804338174,-6.75726650926812,0.));
#1310=CARTESIAN_POINT('',(-0.899554357444559,-7.89116943452758,1.95972083236562E-32));
#1311=CARTESIAN_POINT('',(-5.60870172931892,-5.62336358400866,1.95972083236562E-32));
#1312=CARTESIAN_POINT('Origin',(-3.25412804338174,-6.75726650926812,0.));
#1313=CARTESIAN_POINT('Origin',(-7.31195934136369,-1.66890700467229,0.));
#1314=CARTESIAN_POINT('',(-6.73042766548738,-4.21676375032582,1.95972083236562E-32));
#1315=CARTESIAN_POINT('',(-7.89349101724001,0.878949740981249,1.95972083236562E-32));
#1316=CARTESIAN_POINT('Origin',(-7.31195934136369,-1.66890700467229,0.));
#1317=CARTESIAN_POINT('Origin',(-5.86373611851017,4.67617351394057,0.));
#1318=CARTESIAN_POINT('',(-7.49315166571394,2.63295104417612,1.95972083236562E-32));
#1319=CARTESIAN_POINT('',(-4.23432057130639,6.71939598370503,1.95972083236562E-32));
#1320=CARTESIAN_POINT('Origin',(-5.86373611851017,4.67617351394057,0.));
#1321=CARTESIAN_POINT('Origin',(0.,0.,3.5));
#1322=CARTESIAN_POINT('',(-9.10999999999999,-1.11565323402324E-15,3.14709490730489));
#1323=CARTESIAN_POINT('Origin',(0.,0.,3.14709490730489));
#1324=CARTESIAN_POINT('',(-9.10999999999999,-1.11565323402324E-15,3.325));
#1325=CARTESIAN_POINT('',(-9.10999999999999,-1.11565323402324E-15,3.5));
#1326=CARTESIAN_POINT('Origin',(0.,0.,3.325));
#1327=CARTESIAN_POINT('Origin',(0.,0.,1.85890868663651));
#1328=CARTESIAN_POINT('',(-5.40000000000001,-6.61309271539572E-16,3.14709490730489));
#1329=CARTESIAN_POINT('Origin',(0.,0.,3.14709490730489));
#1330=CARTESIAN_POINT('',(-6.80000000000001,-8.32759823420201E-16,3.14709490730489));
#1331=CARTESIAN_POINT('Origin',(-6.10000000000001,-7.47034547479886E-16,
1.85890868663651));
#1332=CARTESIAN_POINT('Origin',(0.,0.,3.14709490730489));
#1333=CARTESIAN_POINT('Origin',(0.,0.,3.5));
#1334=CARTESIAN_POINT('',(-5.40000000000001,-6.61309271539572E-16,2.61337962921956));
#1335=CARTESIAN_POINT('Origin',(0.,0.,2.61337962921956));
#1336=CARTESIAN_POINT('',(-5.40000000000001,-6.61309271539572E-16,3.5));
#1337=CARTESIAN_POINT('Origin',(0.,0.,3.5));
#1338=CARTESIAN_POINT('',(-9.59999999999999,-1.17566092718146E-15,3.325));
#1339=CARTESIAN_POINT('Origin',(0.,0.,3.325));
#1340=CARTESIAN_POINT('',(-9.59999999999999,-1.17566092718146E-15,2.61337962921956));
#1341=CARTESIAN_POINT('',(-9.59999999999999,-1.17566092718146E-15,3.5));
#1342=CARTESIAN_POINT('Origin',(0.,0.,2.61337962921956));
#1343=CARTESIAN_POINT('Origin',(0.,9.59999999999999,3.325));
#1344=CARTESIAN_POINT('Origin',(0.,9.59999999999999,2.61337962921956));
#1345=CARTESIAN_POINT('Origin',(0.,9.10999999999999,3.14709490730489));
#1346=CARTESIAN_POINT('Origin',(0.,0.,3.5));
#1347=CARTESIAN_POINT('',(11.,1.34711147906209E-15,3.15));
#1348=CARTESIAN_POINT('',(-11.,-1.34711147906209E-15,3.15));
#1349=CARTESIAN_POINT('Origin',(0.,0.,3.15));
#1350=CARTESIAN_POINT('Origin',(0.,0.,3.15));
#1351=CARTESIAN_POINT('',(-11.,-1.34711147906209E-15,-3.15));
#1352=CARTESIAN_POINT('',(-11.,-1.34711147906209E-15,3.5));
#1353=CARTESIAN_POINT('Origin',(0.,0.,-3.15));
#1354=CARTESIAN_POINT('Origin',(0.,0.,-3.5));
#1355=CARTESIAN_POINT('',(-10.65,-1.30424884109193E-15,-3.5));
#1356=CARTESIAN_POINT('',(-10.65,-1.30424884109193E-15,-3.5));
#1357=CARTESIAN_POINT('Origin',(0.,0.,-3.5));
#1358=CARTESIAN_POINT('Origin',(0.,0.,3.5));
#1359=CARTESIAN_POINT('',(-9.6,-1.17566092718146E-15,-3.5));
#1360=CARTESIAN_POINT('Origin',(0.,0.,-3.5));
#1361=CARTESIAN_POINT('',(-9.6,-1.17566092718146E-15,-1.55555555555556));
#1362=CARTESIAN_POINT('',(-9.6,-1.17566092718146E-15,3.5));
#1363=CARTESIAN_POINT('Origin',(0.,0.,-1.55555555555556));
#1364=CARTESIAN_POINT('Origin',(0.,0.,0.));
#1365=CARTESIAN_POINT('',(-9.6,-1.17566092718146E-15,1.55555555555556));
#1366=CARTESIAN_POINT('Origin',(-7.5,-9.18485099360515E-16,0.));
#1367=CARTESIAN_POINT('Origin',(0.,0.,1.55555555555556));
#1368=CARTESIAN_POINT('Origin',(0.,0.,3.5));
#1369=CARTESIAN_POINT('',(-9.6,-1.17566092718146E-15,3.5));
#1370=CARTESIAN_POINT('',(-9.6,-1.17566092718146E-15,3.5));
#1371=CARTESIAN_POINT('Origin',(0.,0.,3.5));
#1372=CARTESIAN_POINT('Origin',(0.,0.,3.15));
#1373=CARTESIAN_POINT('',(10.65,-1.30424884109193E-15,3.5));
#1374=CARTESIAN_POINT('',(11.,-1.34711147906209E-15,3.15));
#1375=CARTESIAN_POINT('Origin',(0.,0.,3.5));
#1376=CARTESIAN_POINT('Origin',(0.,10.65,3.5));
#1377=CARTESIAN_POINT('Origin',(0.,10.65,-3.5));
#1378=CARTESIAN_POINT('Origin',(0.,0.,0.));
#1379=CARTESIAN_POINT('',(-5.4,6.61309271539571E-16,1.55555555555556));
#1380=CARTESIAN_POINT('Origin',(0.,0.,1.55555555555556));
#1381=CARTESIAN_POINT('',(-5.4,-6.61309271539571E-16,-1.55555555555556));
#1382=CARTESIAN_POINT('Origin',(-7.5,-9.18485099360515E-16,0.));
#1383=CARTESIAN_POINT('Origin',(0.,0.,-1.55555555555556));
#1384=CARTESIAN_POINT('Origin',(0.,0.,3.5));
#1385=CARTESIAN_POINT('',(-5.4,-6.61309271539571E-16,3.5));
#1386=CARTESIAN_POINT('Origin',(0.,0.,3.5));
#1387=CARTESIAN_POINT('',(-5.4,-6.61309271539571E-16,3.5));
#1388=CARTESIAN_POINT('Origin',(0.,0.,3.5));
#1389=CARTESIAN_POINT('',(-5.4,-6.61309271539571E-16,-3.5));
#1390=CARTESIAN_POINT('',(-5.4,-6.61309271539571E-16,3.5));
#1391=CARTESIAN_POINT('Origin',(0.,0.,-3.5));
#1392=CARTESIAN_POINT('Origin',(0.,0.,-3.15));
#1393=CARTESIAN_POINT('',(-4.,4.89858719658941E-16,-3.15));
#1394=CARTESIAN_POINT('',(4.,-4.89858719658941E-16,-3.15));
#1395=CARTESIAN_POINT('Origin',(0.,0.,-3.15));
#1396=CARTESIAN_POINT('',(4.35,-5.32721357629099E-16,-3.5));
#1397=CARTESIAN_POINT('',(4.,-4.89858719658941E-16,-3.15));
#1398=CARTESIAN_POINT('Origin',(0.,0.,-3.5));
#1399=CARTESIAN_POINT('Origin',(0.,0.,-3.15));
#1400=CARTESIAN_POINT('Origin',(0.,0.,3.5));
#1401=CARTESIAN_POINT('',(-4.,-4.89858719658941E-16,3.15));
#1402=CARTESIAN_POINT('',(-4.,-4.89858719658941E-16,3.5));
#1403=CARTESIAN_POINT('Origin',(0.,0.,3.15));
#1404=CARTESIAN_POINT('Origin',(0.,0.,3.5));
#1405=CARTESIAN_POINT('',(-4.35,-5.32721357629099E-16,3.5));
#1406=CARTESIAN_POINT('',(-4.35,-5.32721357629099E-16,3.5));
#1407=CARTESIAN_POINT('Origin',(0.,0.,3.5));
#1408=CARTESIAN_POINT('Origin',(0.,4.35,-3.5));
#1409=CARTESIAN_POINT('Origin',(0.,4.35,3.5));
#1410=CARTESIAN_POINT('Origin',(0.,0.,3.5));
#1411=CARTESIAN_POINT('',(-5.40000000000001,-6.61309271539572E-16,-3.14709490730489));
#1412=CARTESIAN_POINT('Origin',(0.,0.,-3.14709490730489));
#1413=CARTESIAN_POINT('',(-5.40000000000001,-6.61309271539572E-16,-2.61337962921956));
#1414=CARTESIAN_POINT('',(-5.40000000000001,-6.61309271539572E-16,3.5));
#1415=CARTESIAN_POINT('Origin',(0.,0.,-2.61337962921956));
#1416=CARTESIAN_POINT('Origin',(0.,0.,3.5));
#1417=CARTESIAN_POINT('',(-9.59999999999999,-1.17566092718146E-15,-2.61337962921956));
#1418=CARTESIAN_POINT('Origin',(0.,0.,-2.61337962921956));
#1419=CARTESIAN_POINT('',(-9.59999999999999,-1.17566092718146E-15,-3.325));
#1420=CARTESIAN_POINT('',(-9.59999999999999,-1.17566092718146E-15,3.5));
#1421=CARTESIAN_POINT('Origin',(0.,0.,-3.325));
#1422=CARTESIAN_POINT('Origin',(0.,0.,3.5));
#1423=CARTESIAN_POINT('',(-9.10999999999999,-1.11565323402324E-15,-3.325));
#1424=CARTESIAN_POINT('Origin',(0.,0.,-3.325));
#1425=CARTESIAN_POINT('',(-9.10999999999999,-1.11565323402324E-15,-3.14709490730489));
#1426=CARTESIAN_POINT('',(-9.10999999999999,-1.11565323402324E-15,3.5));
#1427=CARTESIAN_POINT('Origin',(0.,0.,-3.14709490730489));
#1428=CARTESIAN_POINT('Origin',(0.,0.,-1.85890868663651));
#1429=CARTESIAN_POINT('',(-6.80000000000001,-8.32759823420201E-16,-3.14709490730489));
#1430=CARTESIAN_POINT('Origin',(0.,0.,-3.14709490730489));
#1431=CARTESIAN_POINT('Origin',(-6.10000000000001,-7.47034547479886E-16,
-1.85890868663651));
#1432=CARTESIAN_POINT('Origin',(0.,9.10999999999999,-3.14709490730489));
#1433=CARTESIAN_POINT('Origin',(0.,9.59999999999999,-3.325));
#1434=CARTESIAN_POINT('Origin',(0.,9.59999999999999,-2.61337962921956));
#1435=CARTESIAN_POINT('',(0.,0.,3.5));
#1436=CARTESIAN_POINT('',(0.,0.,0.));
#1437=CARTESIAN_POINT('',(-32.,0.,0.));
#1438=CARTESIAN_POINT('',(-32.,0.,3.5));
#1439=CARTESIAN_POINT('',(-16.,-27.712812921102,3.12250225675826E-15));
#1440=CARTESIAN_POINT('',(-16.,-27.712812921102,3.49999999999995));
#1441=UNCERTAINTY_MEASURE_WITH_UNIT(LENGTH_MEASURE(0.01),#1449,
'DISTANCE_ACCURACY_VALUE',
'Maximum model space distance between geometric entities at asserted c
onnectivities');
#1442=UNCERTAINTY_MEASURE_WITH_UNIT(LENGTH_MEASURE(0.01),#1449,
'DISTANCE_ACCURACY_VALUE',
'Maximum model space distance between geometric entities at asserted c
onnectivities');
#1443=UNCERTAINTY_MEASURE_WITH_UNIT(LENGTH_MEASURE(0.01),#1449,
'DISTANCE_ACCURACY_VALUE',
'Maximum model space distance between geometric entities at asserted c
onnectivities');
#1444=UNCERTAINTY_MEASURE_WITH_UNIT(LENGTH_MEASURE(0.01),#1449,
'DISTANCE_ACCURACY_VALUE',
'Maximum model space distance between geometric entities at asserted c
onnectivities');
#1445=(
GEOMETRIC_REPRESENTATION_CONTEXT(3)
GLOBAL_UNCERTAINTY_ASSIGNED_CONTEXT((#1441))
GLOBAL_UNIT_ASSIGNED_CONTEXT((#1449,#1451,#1452))
REPRESENTATION_CONTEXT('','3D')
);
#1446=(
GEOMETRIC_REPRESENTATION_CONTEXT(3)
GLOBAL_UNCERTAINTY_ASSIGNED_CONTEXT((#1442))
GLOBAL_UNIT_ASSIGNED_CONTEXT((#1449,#1451,#1452))
REPRESENTATION_CONTEXT('','3D')
);
#1447=(
GEOMETRIC_REPRESENTATION_CONTEXT(3)
GLOBAL_UNCERTAINTY_ASSIGNED_CONTEXT((#1443))
GLOBAL_UNIT_ASSIGNED_CONTEXT((#1449,#1451,#1452))
REPRESENTATION_CONTEXT('','3D')
);
#1448=(
GEOMETRIC_REPRESENTATION_CONTEXT(3)
GLOBAL_UNCERTAINTY_ASSIGNED_CONTEXT((#1444))
GLOBAL_UNIT_ASSIGNED_CONTEXT((#1449,#1451,#1452))
REPRESENTATION_CONTEXT('','3D')
);
#1449=(
LENGTH_UNIT()
NAMED_UNIT(*)
SI_UNIT(.MILLI.,.METRE.)
);
#1450=(
LENGTH_UNIT()
NAMED_UNIT(*)
SI_UNIT($,.METRE.)
);
#1451=(
NAMED_UNIT(*)
PLANE_ANGLE_UNIT()
SI_UNIT($,.RADIAN.)
);
#1452=(
NAMED_UNIT(*)
SI_UNIT($,.STERADIAN.)
SOLID_ANGLE_UNIT()
);
#1453=SHAPE_DEFINITION_REPRESENTATION(#1456,#1465);
#1454=SHAPE_DEFINITION_REPRESENTATION(#1457,#1466);
#1455=SHAPE_DEFINITION_REPRESENTATION(#1458,#1467);
#1456=PRODUCT_DEFINITION_SHAPE('',$,#1469);
#1457=PRODUCT_DEFINITION_SHAPE('',$,#1470);
#1458=PRODUCT_DEFINITION_SHAPE('',$,#1471);
#1459=PRODUCT_DEFINITION_SHAPE($,$,#29);
#1460=PRODUCT_DEFINITION_SHAPE($,$,#30);
#1461=PRODUCT_DEFINITION_SHAPE($,$,#31);
#1462=PRODUCT_DEFINITION_SHAPE($,$,#32);
#1463=PRODUCT_DEFINITION_SHAPE($,$,#33);
#1464=PRODUCT_DEFINITION_SHAPE($,$,#34);
#1465=SHAPE_REPRESENTATION('',(#801,#927,#928,#929,#930,#931,#932),#1445);
#1466=SHAPE_REPRESENTATION('',(#802),#1446);
#1467=SHAPE_REPRESENTATION('',(#846),#1447);
#1468=PRODUCT_DEFINITION_CONTEXT('part definition',#1479,'design');
#1469=PRODUCT_DEFINITION('608 bearing Wire Guide Assembly',
'608 bearing Wire Guide Assembly v6',#1472,#1468);
#1470=PRODUCT_DEFINITION('608 bearing wire guide',
'608 bearing wire guide v3',#1473,#1468);
#1471=PRODUCT_DEFINITION('5972K222_Steel Ball Bearing',
'5972K222_Steel Ball Bearing',#1474,#1468);
#1472=PRODUCT_DEFINITION_FORMATION('',$,#1481);
#1473=PRODUCT_DEFINITION_FORMATION('',$,#1482);
#1474=PRODUCT_DEFINITION_FORMATION('',$,#1483);
#1475=PRODUCT_RELATED_PRODUCT_CATEGORY(
'608 bearing Wire Guide Assembly v6',
'608 bearing Wire Guide Assembly v6',(#1481));
#1476=PRODUCT_RELATED_PRODUCT_CATEGORY('608 bearing wire guide v3',
'608 bearing wire guide v3',(#1482));
#1477=PRODUCT_RELATED_PRODUCT_CATEGORY('5972K222_Steel Ball Bearing',
'5972K222_Steel Ball Bearing',(#1483));
#1478=APPLICATION_PROTOCOL_DEFINITION('international standard',
'automotive_design',2009,#1479);
#1479=APPLICATION_CONTEXT(
'Core Data for Automotive Mechanical Design Process');
#1480=PRODUCT_CONTEXT('part definition',#1479,'mechanical');
#1481=PRODUCT('608 bearing Wire Guide Assembly',
'608 bearing Wire Guide Assembly v6',$,(#1480));
#1482=PRODUCT('608 bearing wire guide','608 bearing wire guide v3',$,(#1480));
#1483=PRODUCT('5972K222_Steel Ball Bearing',
'5972K222_Steel Ball Bearing',$,(#1480));
#1484=PRESENTATION_STYLE_ASSIGNMENT((#1486));
#1485=PRESENTATION_STYLE_ASSIGNMENT((#1487));
#1486=SURFACE_STYLE_USAGE(.BOTH.,#1488);
#1487=SURFACE_STYLE_USAGE(.BOTH.,#1489);
#1488=SURFACE_SIDE_STYLE('',(#1490));
#1489=SURFACE_SIDE_STYLE('',(#1491));
#1490=SURFACE_STYLE_FILL_AREA(#1492);
#1491=SURFACE_STYLE_FILL_AREA(#1493);
#1492=FILL_AREA_STYLE('Steel - Satin',(#1494));
#1493=FILL_AREA_STYLE('ABS (Red)',(#1495));
#1494=FILL_AREA_STYLE_COLOUR('Steel - Satin',#1496);
#1495=FILL_AREA_STYLE_COLOUR('ABS (Red)',#1497);
#1496=COLOUR_RGB('Steel - Satin',0.627450980392157,0.627450980392157,0.627450980392157);
#1497=COLOUR_RGB('ABS (Red)',1.,0.,0.);
ENDSEC;
END-ISO-10303-21;
